<svg width="1007" height="306" viewBox="0 0 1007 306" fill="none" xmlns="http://www.w3.org/2000/svg">
<g filter="url(#filter0_d_3_3826)">
<path d="M109.375 131.625V66H65.625V131.625H109.375ZM0 241V219.125H21.875V66H0V44.125H131.25V66H153.125V131.625H131.25V153.5H65.625V219.125H87.5V241H0ZM175 241V219.125H196.875V66H175V44.125H262.5V66H240.625V219.125H284.375V175.375H306.25V153.5H328.125V241H175ZM437.5 153.5V87.875H393.75V153.5H437.5ZM350 241V87.875H371.875V66H393.75V44.125H437.5V66H459.375V87.875H481.25V241H437.5V175.375H393.75V241H350ZM525 241V219.125H546.875V131.625H525V109.75H503.125V44.125H546.875V109.75H590.625V44.125H634.375V109.75H612.5V131.625H590.625V219.125H612.5V241H525ZM656.25 241V219.125H678.125V66H656.25V44.125H809.375V87.875H787.5V66H721.875V131.625H765.625V109.75H787.5V175.375H765.625V153.5H721.875V219.125H787.5V197.25H809.375V241H656.25ZM940.625 131.625V66H896.875V131.625H940.625ZM831.25 241V219.125H853.125V66H831.25V44.125H962.5V66H984.375V131.625H962.5V175.375H984.375V241H940.625V175.375H918.75V153.5H896.875V241H831.25Z" fill="url(#paint0_linear_3_3826)" shape-rendering="crispEdges"/>
<path d="M109.375 131.625V151.625H129.375V131.625H109.375ZM109.375 66H129.375V46H109.375V66ZM65.625 66V46H45.625V66H65.625ZM65.625 131.625H45.625V151.625H65.625V131.625ZM0 241H-20V261H0V241ZM0 219.125V199.125H-20V219.125H0ZM21.875 219.125V239.125H41.875V219.125H21.875ZM21.875 66H41.875V46H21.875V66ZM0 66H-20V86H0V66ZM0 44.125V24.125H-20V44.125H0ZM131.25 44.125H151.25V24.125H131.25V44.125ZM131.25 66H111.25V86H131.25V66ZM153.125 66H173.125V46H153.125V66ZM153.125 131.625V151.625H173.125V131.625H153.125ZM131.25 131.625V111.625H111.25V131.625H131.25ZM131.25 153.5V173.5H151.25V153.5H131.25ZM65.625 153.5V133.5H45.625V153.5H65.625ZM65.625 219.125H45.625V239.125H65.625V219.125ZM87.5 219.125H107.5V199.125H87.5V219.125ZM87.5 241V261H107.5V241H87.5ZM129.375 131.625V66H89.375V131.625H129.375ZM109.375 46H65.625V86H109.375V46ZM45.625 66V131.625H85.625V66H45.625ZM65.625 151.625H109.375V111.625H65.625V151.625ZM20 241V219.125H-20V241H20ZM0 239.125H21.875V199.125H0V239.125ZM41.875 219.125V66H1.875V219.125H41.875ZM21.875 46H0V86H21.875V46ZM20 66V44.125H-20V66H20ZM0 64.125H131.25V24.125H0V64.125ZM111.25 44.125V66H151.25V44.125H111.25ZM131.25 86H153.125V46H131.25V86ZM133.125 66V131.625H173.125V66H133.125ZM153.125 111.625H131.25V151.625H153.125V111.625ZM111.25 131.625V153.5H151.25V131.625H111.25ZM131.25 133.5H65.625V173.5H131.25V133.5ZM45.625 153.5V219.125H85.625V153.5H45.625ZM65.625 239.125H87.5V199.125H65.625V239.125ZM67.5 219.125V241H107.5V219.125H67.5ZM87.5 221H0V261H87.5V221ZM175 241H155V261H175V241ZM175 219.125V199.125H155V219.125H175ZM196.875 219.125V239.125H216.875V219.125H196.875ZM196.875 66H216.875V46H196.875V66ZM175 66H155V86H175V66ZM175 44.125V24.125H155V44.125H175ZM262.5 44.125H282.5V24.125H262.5V44.125ZM262.5 66V86H282.5V66H262.5ZM240.625 66V46H220.625V66H240.625ZM240.625 219.125H220.625V239.125H240.625V219.125ZM284.375 219.125V239.125H304.375V219.125H284.375ZM284.375 175.375V155.375H264.375V175.375H284.375ZM306.25 175.375V195.375H326.25V175.375H306.25ZM306.25 153.5V133.5H286.25V153.5H306.25ZM328.125 153.5H348.125V133.5H328.125V153.5ZM328.125 241V261H348.125V241H328.125ZM195 241V219.125H155V241H195ZM175 239.125H196.875V199.125H175V239.125ZM216.875 219.125V66H176.875V219.125H216.875ZM196.875 46H175V86H196.875V46ZM195 66V44.125H155V66H195ZM175 64.125H262.5V24.125H175V64.125ZM242.5 44.125V66H282.5V44.125H242.5ZM262.5 46H240.625V86H262.5V46ZM220.625 66V219.125H260.625V66H220.625ZM240.625 239.125H284.375V199.125H240.625V239.125ZM304.375 219.125V175.375H264.375V219.125H304.375ZM284.375 195.375H306.25V155.375H284.375V195.375ZM326.25 175.375V153.5H286.25V175.375H326.25ZM306.25 173.5H328.125V133.5H306.25V173.5ZM308.125 153.5V241H348.125V153.5H308.125ZM328.125 221H175V261H328.125V221ZM437.5 153.5V173.5H457.5V153.5H437.5ZM437.5 87.875H457.5V67.875H437.5V87.875ZM393.75 87.875V67.875H373.75V87.875H393.75ZM393.75 153.5H373.75V173.5H393.75V153.5ZM350 241H330V261H350V241ZM350 87.875V67.875H330V87.875H350ZM371.875 87.875V107.875H391.875V87.875H371.875ZM371.875 66V46H351.875V66H371.875ZM393.75 66V86H413.75V66H393.75ZM393.75 44.125V24.125H373.75V44.125H393.75ZM437.5 44.125H457.5V24.125H437.5V44.125ZM437.5 66H417.5V86H437.5V66ZM459.375 66H479.375V46H459.375V66ZM459.375 87.875H439.375V107.875H459.375V87.875ZM481.25 87.875H501.25V67.875H481.25V87.875ZM481.25 241V261H501.25V241H481.25ZM437.5 241H417.5V261H437.5V241ZM437.5 175.375H457.5V155.375H437.5V175.375ZM393.75 175.375V155.375H373.75V175.375H393.75ZM393.75 241V261H413.75V241H393.75ZM457.5 153.5V87.875H417.5V153.5H457.5ZM437.5 67.875H393.75V107.875H437.5V67.875ZM373.75 87.875V153.5H413.75V87.875H373.75ZM393.75 173.5H437.5V133.5H393.75V173.5ZM370 241V87.875H330V241H370ZM350 107.875H371.875V67.875H350V107.875ZM391.875 87.875V66H351.875V87.875H391.875ZM371.875 86H393.75V46H371.875V86ZM413.75 66V44.125H373.75V66H413.75ZM393.75 64.125H437.5V24.125H393.75V64.125ZM417.5 44.125V66H457.5V44.125H417.5ZM437.5 86H459.375V46H437.5V86ZM439.375 66V87.875H479.375V66H439.375ZM459.375 107.875H481.25V67.875H459.375V107.875ZM461.25 87.875V241H501.25V87.875H461.25ZM481.25 221H437.5V261H481.25V221ZM457.5 241V175.375H417.5V241H457.5ZM437.5 155.375H393.75V195.375H437.5V155.375ZM373.75 175.375V241H413.75V175.375H373.75ZM393.75 221H350V261H393.75V221ZM525 241H505V261H525V241ZM525 219.125V199.125H505V219.125H525ZM546.875 219.125V239.125H566.875V219.125H546.875ZM546.875 131.625H566.875V111.625H546.875V131.625ZM525 131.625H505V151.625H525V131.625ZM525 109.75H545V89.75H525V109.75ZM503.125 109.75H483.125V129.75H503.125V109.75ZM503.125 44.125V24.125H483.125V44.125H503.125ZM546.875 44.125H566.875V24.125H546.875V44.125ZM546.875 109.75H526.875V129.75H546.875V109.75ZM590.625 109.75V129.75H610.625V109.75H590.625ZM590.625 44.125V24.125H570.625V44.125H590.625ZM634.375 44.125H654.375V24.125H634.375V44.125ZM634.375 109.75V129.75H654.375V109.75H634.375ZM612.5 109.75V89.75H592.5V109.75H612.5ZM612.5 131.625V151.625H632.5V131.625H612.5ZM590.625 131.625V111.625H570.625V131.625H590.625ZM590.625 219.125H570.625V239.125H590.625V219.125ZM612.5 219.125H632.5V199.125H612.5V219.125ZM612.5 241V261H632.5V241H612.5ZM545 241V219.125H505V241H545ZM525 239.125H546.875V199.125H525V239.125ZM566.875 219.125V131.625H526.875V219.125H566.875ZM546.875 111.625H525V151.625H546.875V111.625ZM545 131.625V109.75H505V131.625H545ZM525 89.75H503.125V129.75H525V89.75ZM523.125 109.75V44.125H483.125V109.75H523.125ZM503.125 64.125H546.875V24.125H503.125V64.125ZM526.875 44.125V109.75H566.875V44.125H526.875ZM546.875 129.75H590.625V89.75H546.875V129.75ZM610.625 109.75V44.125H570.625V109.75H610.625ZM590.625 64.125H634.375V24.125H590.625V64.125ZM614.375 44.125V109.75H654.375V44.125H614.375ZM634.375 89.75H612.5V129.75H634.375V89.75ZM592.5 109.75V131.625H632.5V109.75H592.5ZM612.5 111.625H590.625V151.625H612.5V111.625ZM570.625 131.625V219.125H610.625V131.625H570.625ZM590.625 239.125H612.5V199.125H590.625V239.125ZM592.5 219.125V241H632.5V219.125H592.5ZM612.5 221H525V261H612.5V221ZM656.25 241H636.25V261H656.25V241ZM656.25 219.125V199.125H636.25V219.125H656.25ZM678.125 219.125V239.125H698.125V219.125H678.125ZM678.125 66H698.125V46H678.125V66ZM656.25 66H636.25V86H656.25V66ZM656.25 44.125V24.125H636.25V44.125H656.25ZM809.375 44.125H829.375V24.125H809.375V44.125ZM809.375 87.875V107.875H829.375V87.875H809.375ZM787.5 87.875H767.5V107.875H787.5V87.875ZM787.5 66H807.5V46H787.5V66ZM721.875 66V46H701.875V66H721.875ZM721.875 131.625H701.875V151.625H721.875V131.625ZM765.625 131.625V151.625H785.625V131.625H765.625ZM765.625 109.75V89.75H745.625V109.75H765.625ZM787.5 109.75H807.5V89.75H787.5V109.75ZM787.5 175.375V195.375H807.5V175.375H787.5ZM765.625 175.375H745.625V195.375H765.625V175.375ZM765.625 153.5H785.625V133.5H765.625V153.5ZM721.875 153.5V133.5H701.875V153.5H721.875ZM721.875 219.125H701.875V239.125H721.875V219.125ZM787.5 219.125V239.125H807.5V219.125H787.5ZM787.5 197.25V177.25H767.5V197.25H787.5ZM809.375 197.25H829.375V177.25H809.375V197.25ZM809.375 241V261H829.375V241H809.375ZM676.25 241V219.125H636.25V241H676.25ZM656.25 239.125H678.125V199.125H656.25V239.125ZM698.125 219.125V66H658.125V219.125H698.125ZM678.125 46H656.25V86H678.125V46ZM676.25 66V44.125H636.25V66H676.25ZM656.25 64.125H809.375V24.125H656.25V64.125ZM789.375 44.125V87.875H829.375V44.125H789.375ZM809.375 67.875H787.5V107.875H809.375V67.875ZM807.5 87.875V66H767.5V87.875H807.5ZM787.5 46H721.875V86H787.5V46ZM701.875 66V131.625H741.875V66H701.875ZM721.875 151.625H765.625V111.625H721.875V151.625ZM785.625 131.625V109.75H745.625V131.625H785.625ZM765.625 129.75H787.5V89.75H765.625V129.75ZM767.5 109.75V175.375H807.5V109.75H767.5ZM787.5 155.375H765.625V195.375H787.5V155.375ZM785.625 175.375V153.5H745.625V175.375H785.625ZM765.625 133.5H721.875V173.5H765.625V133.5ZM701.875 153.5V219.125H741.875V153.5H701.875ZM721.875 239.125H787.5V199.125H721.875V239.125ZM807.5 219.125V197.25H767.5V219.125H807.5ZM787.5 217.25H809.375V177.25H787.5V217.25ZM789.375 197.25V241H829.375V197.25H789.375ZM809.375 221H656.25V261H809.375V221ZM940.625 131.625V151.625H960.625V131.625H940.625ZM940.625 66H960.625V46H940.625V66ZM896.875 66V46H876.875V66H896.875ZM896.875 131.625H876.875V151.625H896.875V131.625ZM831.25 241H811.25V261H831.25V241ZM831.25 219.125V199.125H811.25V219.125H831.25ZM853.125 219.125V239.125H873.125V219.125H853.125ZM853.125 66H873.125V46H853.125V66ZM831.25 66H811.25V86H831.25V66ZM831.25 44.125V24.125H811.25V44.125H831.25ZM962.5 44.125H982.5V24.125H962.5V44.125ZM962.5 66H942.5V86H962.5V66ZM984.375 66H1004.38V46H984.375V66ZM984.375 131.625V151.625H1004.38V131.625H984.375ZM962.5 131.625V111.625H942.5V131.625H962.5ZM962.5 175.375H942.5V195.375H962.5V175.375ZM984.375 175.375H1004.38V155.375H984.375V175.375ZM984.375 241V261H1004.38V241H984.375ZM940.625 241H920.625V261H940.625V241ZM940.625 175.375H960.625V155.375H940.625V175.375ZM918.75 175.375H898.75V195.375H918.75V175.375ZM918.75 153.5H938.75V133.5H918.75V153.5ZM896.875 153.5V133.5H876.875V153.5H896.875ZM896.875 241V261H916.875V241H896.875ZM960.625 131.625V66H920.625V131.625H960.625ZM940.625 46H896.875V86H940.625V46ZM876.875 66V131.625H916.875V66H876.875ZM896.875 151.625H940.625V111.625H896.875V151.625ZM851.25 241V219.125H811.25V241H851.25ZM831.25 239.125H853.125V199.125H831.25V239.125ZM873.125 219.125V66H833.125V219.125H873.125ZM853.125 46H831.25V86H853.125V46ZM851.25 66V44.125H811.25V66H851.25ZM831.25 64.125H962.5V24.125H831.25V64.125ZM942.5 44.125V66H982.5V44.125H942.5ZM962.5 86H984.375V46H962.5V86ZM964.375 66V131.625H1004.38V66H964.375ZM984.375 111.625H962.5V151.625H984.375V111.625ZM942.5 131.625V175.375H982.5V131.625H942.5ZM962.5 195.375H984.375V155.375H962.5V195.375ZM964.375 175.375V241H1004.38V175.375H964.375ZM984.375 221H940.625V261H984.375V221ZM960.625 241V175.375H920.625V241H960.625ZM940.625 155.375H918.75V195.375H940.625V155.375ZM938.75 175.375V153.5H898.75V175.375H938.75ZM918.75 133.5H896.875V173.5H918.75V133.5ZM876.875 153.5V241H916.875V153.5H876.875ZM896.875 221H831.25V261H896.875V221Z" fill="black" fill-opacity="0.5"/>
</g>
<path opacity="0.2" d="M109.375 131.625V142.625H120.375V131.625H109.375ZM109.375 66H120.375V55H109.375V66ZM65.625 66V55H54.625V66H65.625ZM65.625 131.625H54.625V142.625H65.625V131.625ZM0 241H-11V252H0V241ZM0 219.125V208.125H-11V219.125H0ZM21.875 219.125V230.125H32.875V219.125H21.875ZM21.875 66H32.875V55H21.875V66ZM0 66H-11V77H0V66ZM0 44.125V33.125H-11V44.125H0ZM131.25 44.125H142.25V33.125H131.25V44.125ZM131.25 66H120.25V77H131.25V66ZM153.125 66H164.125V55H153.125V66ZM153.125 131.625V142.625H164.125V131.625H153.125ZM131.25 131.625V120.625H120.25V131.625H131.25ZM131.25 153.5V164.5H142.25V153.5H131.25ZM65.625 153.5V142.5H54.625V153.5H65.625ZM65.625 219.125H54.625V230.125H65.625V219.125ZM87.5 219.125H98.5V208.125H87.5V219.125ZM87.5 241V252H98.5V241H87.5ZM120.375 131.625V66H98.375V131.625H120.375ZM109.375 55H65.625V77H109.375V55ZM54.625 66V131.625H76.625V66H54.625ZM65.625 142.625H109.375V120.625H65.625V142.625ZM11 241V219.125H-11V241H11ZM0 230.125H21.875V208.125H0V230.125ZM32.875 219.125V66H10.875V219.125H32.875ZM21.875 55H0V77H21.875V55ZM11 66V44.125H-11V66H11ZM0 55.125H131.25V33.125H0V55.125ZM120.25 44.125V66H142.25V44.125H120.25ZM131.25 77H153.125V55H131.25V77ZM142.125 66V131.625H164.125V66H142.125ZM153.125 120.625H131.25V142.625H153.125V120.625ZM120.25 131.625V153.5H142.25V131.625H120.25ZM131.25 142.5H65.625V164.5H131.25V142.5ZM54.625 153.5V219.125H76.625V153.5H54.625ZM65.625 230.125H87.5V208.125H65.625V230.125ZM76.5 219.125V241H98.5V219.125H76.5ZM87.5 230H0V252H87.5V230ZM175 241H164V252H175V241ZM175 219.125V208.125H164V219.125H175ZM196.875 219.125V230.125H207.875V219.125H196.875ZM196.875 66H207.875V55H196.875V66ZM175 66H164V77H175V66ZM175 44.125V33.125H164V44.125H175ZM262.5 44.125H273.5V33.125H262.5V44.125ZM262.5 66V77H273.5V66H262.5ZM240.625 66V55H229.625V66H240.625ZM240.625 219.125H229.625V230.125H240.625V219.125ZM284.375 219.125V230.125H295.375V219.125H284.375ZM284.375 175.375V164.375H273.375V175.375H284.375ZM306.25 175.375V186.375H317.25V175.375H306.25ZM306.25 153.5V142.5H295.25V153.5H306.25ZM328.125 153.5H339.125V142.5H328.125V153.5ZM328.125 241V252H339.125V241H328.125ZM186 241V219.125H164V241H186ZM175 230.125H196.875V208.125H175V230.125ZM207.875 219.125V66H185.875V219.125H207.875ZM196.875 55H175V77H196.875V55ZM186 66V44.125H164V66H186ZM175 55.125H262.5V33.125H175V55.125ZM251.5 44.125V66H273.5V44.125H251.5ZM262.5 55H240.625V77H262.5V55ZM229.625 66V219.125H251.625V66H229.625ZM240.625 230.125H284.375V208.125H240.625V230.125ZM295.375 219.125V175.375H273.375V219.125H295.375ZM284.375 186.375H306.25V164.375H284.375V186.375ZM317.25 175.375V153.5H295.25V175.375H317.25ZM306.25 164.5H328.125V142.5H306.25V164.5ZM317.125 153.5V241H339.125V153.5H317.125ZM328.125 230H175V252H328.125V230ZM437.5 153.5V164.5H448.5V153.5H437.5ZM437.5 87.875H448.5V76.875H437.5V87.875ZM393.75 87.875V76.875H382.75V87.875H393.75ZM393.75 153.5H382.75V164.5H393.75V153.5ZM350 241H339V252H350V241ZM350 87.875V76.875H339V87.875H350ZM371.875 87.875V98.875H382.875V87.875H371.875ZM371.875 66V55H360.875V66H371.875ZM393.75 66V77H404.75V66H393.75ZM393.75 44.125V33.125H382.75V44.125H393.75ZM437.5 44.125H448.5V33.125H437.5V44.125ZM437.5 66H426.5V77H437.5V66ZM459.375 66H470.375V55H459.375V66ZM459.375 87.875H448.375V98.875H459.375V87.875ZM481.25 87.875H492.25V76.875H481.25V87.875ZM481.25 241V252H492.25V241H481.25ZM437.5 241H426.5V252H437.5V241ZM437.5 175.375H448.5V164.375H437.5V175.375ZM393.75 175.375V164.375H382.75V175.375H393.75ZM393.75 241V252H404.75V241H393.75ZM448.5 153.5V87.875H426.5V153.5H448.5ZM437.5 76.875H393.75V98.875H437.5V76.875ZM382.75 87.875V153.5H404.75V87.875H382.75ZM393.75 164.5H437.5V142.5H393.75V164.5ZM361 241V87.875H339V241H361ZM350 98.875H371.875V76.875H350V98.875ZM382.875 87.875V66H360.875V87.875H382.875ZM371.875 77H393.75V55H371.875V77ZM404.75 66V44.125H382.75V66H404.75ZM393.75 55.125H437.5V33.125H393.75V55.125ZM426.5 44.125V66H448.5V44.125H426.5ZM437.5 77H459.375V55H437.5V77ZM448.375 66V87.875H470.375V66H448.375ZM459.375 98.875H481.25V76.875H459.375V98.875ZM470.25 87.875V241H492.25V87.875H470.25ZM481.25 230H437.5V252H481.25V230ZM448.5 241V175.375H426.5V241H448.5ZM437.5 164.375H393.75V186.375H437.5V164.375ZM382.75 175.375V241H404.75V175.375H382.75ZM393.75 230H350V252H393.75V230ZM525 241H514V252H525V241ZM525 219.125V208.125H514V219.125H525ZM546.875 219.125V230.125H557.875V219.125H546.875ZM546.875 131.625H557.875V120.625H546.875V131.625ZM525 131.625H514V142.625H525V131.625ZM525 109.75H536V98.75H525V109.75ZM503.125 109.75H492.125V120.75H503.125V109.75ZM503.125 44.125V33.125H492.125V44.125H503.125ZM546.875 44.125H557.875V33.125H546.875V44.125ZM546.875 109.75H535.875V120.75H546.875V109.75ZM590.625 109.75V120.75H601.625V109.75H590.625ZM590.625 44.125V33.125H579.625V44.125H590.625ZM634.375 44.125H645.375V33.125H634.375V44.125ZM634.375 109.75V120.75H645.375V109.75H634.375ZM612.5 109.75V98.75H601.5V109.75H612.5ZM612.5 131.625V142.625H623.5V131.625H612.5ZM590.625 131.625V120.625H579.625V131.625H590.625ZM590.625 219.125H579.625V230.125H590.625V219.125ZM612.5 219.125H623.5V208.125H612.5V219.125ZM612.5 241V252H623.5V241H612.5ZM536 241V219.125H514V241H536ZM525 230.125H546.875V208.125H525V230.125ZM557.875 219.125V131.625H535.875V219.125H557.875ZM546.875 120.625H525V142.625H546.875V120.625ZM536 131.625V109.75H514V131.625H536ZM525 98.75H503.125V120.75H525V98.75ZM514.125 109.75V44.125H492.125V109.75H514.125ZM503.125 55.125H546.875V33.125H503.125V55.125ZM535.875 44.125V109.75H557.875V44.125H535.875ZM546.875 120.75H590.625V98.75H546.875V120.75ZM601.625 109.75V44.125H579.625V109.75H601.625ZM590.625 55.125H634.375V33.125H590.625V55.125ZM623.375 44.125V109.75H645.375V44.125H623.375ZM634.375 98.75H612.5V120.75H634.375V98.75ZM601.5 109.75V131.625H623.5V109.75H601.5ZM612.5 120.625H590.625V142.625H612.5V120.625ZM579.625 131.625V219.125H601.625V131.625H579.625ZM590.625 230.125H612.5V208.125H590.625V230.125ZM601.5 219.125V241H623.5V219.125H601.5ZM612.5 230H525V252H612.5V230ZM656.25 241H645.25V252H656.25V241ZM656.25 219.125V208.125H645.25V219.125H656.25ZM678.125 219.125V230.125H689.125V219.125H678.125ZM678.125 66H689.125V55H678.125V66ZM656.25 66H645.25V77H656.25V66ZM656.25 44.125V33.125H645.25V44.125H656.25ZM809.375 44.125H820.375V33.125H809.375V44.125ZM809.375 87.875V98.875H820.375V87.875H809.375ZM787.5 87.875H776.5V98.875H787.5V87.875ZM787.5 66H798.5V55H787.5V66ZM721.875 66V55H710.875V66H721.875ZM721.875 131.625H710.875V142.625H721.875V131.625ZM765.625 131.625V142.625H776.625V131.625H765.625ZM765.625 109.75V98.75H754.625V109.75H765.625ZM787.5 109.75H798.5V98.75H787.5V109.75ZM787.5 175.375V186.375H798.5V175.375H787.5ZM765.625 175.375H754.625V186.375H765.625V175.375ZM765.625 153.5H776.625V142.5H765.625V153.5ZM721.875 153.5V142.5H710.875V153.5H721.875ZM721.875 219.125H710.875V230.125H721.875V219.125ZM787.5 219.125V230.125H798.5V219.125H787.5ZM787.5 197.25V186.25H776.5V197.25H787.5ZM809.375 197.25H820.375V186.25H809.375V197.25ZM809.375 241V252H820.375V241H809.375ZM667.25 241V219.125H645.25V241H667.25ZM656.25 230.125H678.125V208.125H656.25V230.125ZM689.125 219.125V66H667.125V219.125H689.125ZM678.125 55H656.25V77H678.125V55ZM667.25 66V44.125H645.25V66H667.25ZM656.25 55.125H809.375V33.125H656.25V55.125ZM798.375 44.125V87.875H820.375V44.125H798.375ZM809.375 76.875H787.5V98.875H809.375V76.875ZM798.5 87.875V66H776.5V87.875H798.5ZM787.5 55H721.875V77H787.5V55ZM710.875 66V131.625H732.875V66H710.875ZM721.875 142.625H765.625V120.625H721.875V142.625ZM776.625 131.625V109.75H754.625V131.625H776.625ZM765.625 120.75H787.5V98.75H765.625V120.75ZM776.5 109.75V175.375H798.5V109.75H776.5ZM787.5 164.375H765.625V186.375H787.5V164.375ZM776.625 175.375V153.5H754.625V175.375H776.625ZM765.625 142.5H721.875V164.5H765.625V142.5ZM710.875 153.5V219.125H732.875V153.5H710.875ZM721.875 230.125H787.5V208.125H721.875V230.125ZM798.5 219.125V197.25H776.5V219.125H798.5ZM787.5 208.25H809.375V186.25H787.5V208.25ZM798.375 197.25V241H820.375V197.25H798.375ZM809.375 230H656.25V252H809.375V230ZM940.625 131.625V142.625H951.625V131.625H940.625ZM940.625 66H951.625V55H940.625V66ZM896.875 66V55H885.875V66H896.875ZM896.875 131.625H885.875V142.625H896.875V131.625ZM831.25 241H820.25V252H831.25V241ZM831.25 219.125V208.125H820.25V219.125H831.25ZM853.125 219.125V230.125H864.125V219.125H853.125ZM853.125 66H864.125V55H853.125V66ZM831.25 66H820.25V77H831.25V66ZM831.25 44.125V33.125H820.25V44.125H831.25ZM962.5 44.125H973.5V33.125H962.5V44.125ZM962.5 66H951.5V77H962.5V66ZM984.375 66H995.375V55H984.375V66ZM984.375 131.625V142.625H995.375V131.625H984.375ZM962.5 131.625V120.625H951.5V131.625H962.5ZM962.5 175.375H951.5V186.375H962.5V175.375ZM984.375 175.375H995.375V164.375H984.375V175.375ZM984.375 241V252H995.375V241H984.375ZM940.625 241H929.625V252H940.625V241ZM940.625 175.375H951.625V164.375H940.625V175.375ZM918.75 175.375H907.75V186.375H918.75V175.375ZM918.75 153.5H929.75V142.5H918.75V153.5ZM896.875 153.5V142.5H885.875V153.5H896.875ZM896.875 241V252H907.875V241H896.875ZM951.625 131.625V66H929.625V131.625H951.625ZM940.625 55H896.875V77H940.625V55ZM885.875 66V131.625H907.875V66H885.875ZM896.875 142.625H940.625V120.625H896.875V142.625ZM842.25 241V219.125H820.25V241H842.25ZM831.25 230.125H853.125V208.125H831.25V230.125ZM864.125 219.125V66H842.125V219.125H864.125ZM853.125 55H831.25V77H853.125V55ZM842.25 66V44.125H820.25V66H842.25ZM831.25 55.125H962.5V33.125H831.25V55.125ZM951.5 44.125V66H973.5V44.125H951.5ZM962.5 77H984.375V55H962.5V77ZM973.375 66V131.625H995.375V66H973.375ZM984.375 120.625H962.5V142.625H984.375V120.625ZM951.5 131.625V175.375H973.5V131.625H951.5ZM962.5 186.375H984.375V164.375H962.5V186.375ZM973.375 175.375V241H995.375V175.375H973.375ZM984.375 230H940.625V252H984.375V230ZM951.625 241V175.375H929.625V241H951.625ZM940.625 164.375H918.75V186.375H940.625V164.375ZM929.75 175.375V153.5H907.75V175.375H929.75ZM918.75 142.5H896.875V164.5H918.75V142.5ZM885.875 153.5V241H907.875V153.5H885.875ZM896.875 230H831.25V252H896.875V230Z" fill="white"/>
<defs>
<filter id="filter0_d_3_3826" x="0" y="44.125" width="984.375" height="216.875" filterUnits="userSpaceOnUse" color-interpolation-filters="sRGB">
<feFlood flood-opacity="0" result="BackgroundImageFix"/>
<feColorMatrix in="SourceAlpha" type="matrix" values="0 0 0 0 0 0 0 0 0 0 0 0 0 0 0 0 0 0 127 0" result="hardAlpha"/>
<feOffset dy="20"/>
<feComposite in2="hardAlpha" operator="out"/>
<feColorMatrix type="matrix" values="0 0 0 0 0 0 0 0 0 0 0 0 0 0 0 0 0 0 0.5 0"/>
<feBlend mode="normal" in2="BackgroundImageFix" result="effect1_dropShadow_3_3826"/>
<feBlend mode="normal" in="SourceGraphic" in2="effect1_dropShadow_3_3826" result="shape"/>
</filter>
<linearGradient id="paint0_linear_3_3826" x1="503.5" y1="0" x2="503.5" y2="306" gradientUnits="userSpaceOnUse">
<stop offset="0.114583" stop-color="#F7F7F7"/>
<stop offset="0.114683" stop-color="#EBEBEB"/>
<stop offset="0.385417" stop-color="#D2D2D2"/>
<stop offset="0.385517" stop-color="#969696"/>
<stop offset="0.604167" stop-color="#ABABAB"/>
<stop offset="0.604267" stop-color="#505050"/>
<stop offset="0.8124" stop-color="#8B8B8B"/>
<stop offset="0.8125" stop-color="#717171"/>
</linearGradient>
</defs>
</svg>
