<svg xmlns="http://www.w3.org/2000/svg" width="1627" height="431" fill="none" viewBox="0 0 1627 431">
  <path fill="#fff" d="M26.962 417.255h26.875v-13.438H26.962zm26.875 13.437h1518.44v-26.875H53.837z"/>
  <path fill="#fff" d="M1572.27 417.255h26.875v-13.438h-26.875zM13.524 403.817h26.875v-26.875H13.524zm26.876 0h26.875v-13.438H40.4z"/>
  <path fill="#AEAEAE" d="M67.274 403.817h1491.56v-13.438H67.274z"/>
  <path fill="#fff" d="M1558.84 403.817h26.875v-13.438h-26.875z"/>
  <path fill="#fff" d="M1585.71 403.817h26.875v-40.313h-26.875z"/>
  <path fill="#AEAEAE" d="M40.4 390.38h13.438v-26.875H40.4z"/>
  <path fill="#AEAEAE" d="M53.837 390.38h13.438v-13.438H53.837zm1505.003 0h13.438v-13.438h-13.438z"/>
  <path fill="#AEAEAE" d="M1572.27 390.38h13.438v-26.875h-13.438z"/>
  <path fill="#fff" d="M.087 376.942H40.4v-13.438H.087zm1612.503 0h13.438v-13.438h-13.438z"/>
  <path fill="#fff" d="M1599.15 363.505h26.875V67.88h-26.875zm-1599.063 0h26.875V67.88H.087z"/>
  <path fill="#AEAEAE" d="M26.962 363.505H40.4V67.88H26.962zm1558.748 0h13.438V67.88h-13.438z"/>
  <path fill="#fff" d="M.087 67.88h13.438V54.442H.087z"/>
  <path fill="#fff" d="M13.524 67.88h26.875V41.005H13.524zm1599.066 0h13.438V54.442h-13.438z"/>
  <path fill="#AEAEAE" d="M40.4 67.88h13.438V41.005H40.4z"/>
  <path fill="#AEAEAE" d="M53.837 54.442h13.438V41.004H53.837zm1505.003 0h13.438V41.004h-13.438z"/>
  <path fill="#AEAEAE" d="M1572.27 67.88h13.438V41.005h-13.438z"/>
  <path fill="#fff" d="M13.524 41.005h13.438V27.567H13.524zm40.313 0h13.438V27.567H53.837z"/>
  <path fill="#AEAEAE" d="M67.274 41.005h1491.56V27.567H67.274z"/>
  <path fill="#fff" d="M1585.71 67.88h26.875V27.567h-26.875zM26.962 41.005h26.875V14.13H26.962z"/>
  <path fill="#fff" d="M1558.84 41.005h26.875V14.13h-26.875z"/>
  <path fill="#fff" d="M1585.71 27.567h13.438V14.129h-13.438zm-1531.873 0h1505V.692h-1505zM1558.84 14.13h13.438V.692h-13.438zM67.274 41.005h1491.56V390.38H67.274zM40.399 67.88h13.438v295.625H40.399zm1545.311 0h-13.438v295.625h13.438z"/>
  <path fill="#fff" d="M53.837 54.442h13.438v322.5H53.837zm1518.433 0h-13.438v322.5h13.438z"/>
  <path stroke="#AEAEAE" stroke-opacity=".5" stroke-width="7" d="M99.824 390.38H40.399v-58.162m59.425 58.162v-58.162m0 58.162h59.424m-59.424-58.162H40.399m59.425 0v-58.162m0 58.162h59.424m-118.849 0v-58.162m59.425 0H40.399m59.425 0v-58.162m0 58.162h59.424m-118.849 0v-58.162m59.425 0H40.399m59.425 0v-58.163m0 58.163h59.424m-118.849 0v-58.163m59.425 0H40.399m59.425 0V99.569m0 58.162h59.424m-118.849 0V99.569m59.425 0H40.399m59.425 0V41.407m0 58.162h59.424m-118.849 0V41.407h59.425m0 0h59.424m0 348.973v-58.162m0 58.162h59.424m-59.424-58.162v-58.162m0 58.162h59.424m-59.424-58.162v-58.162m0 58.162h59.424m-59.424-58.162v-58.163m0 58.163h59.424m-59.424-58.163V99.569m0 58.162h59.424m-59.424-58.162V41.407m0 58.162h59.424m-59.424-58.162h59.424m0 348.973v-58.162m0 58.162h59.424m-59.424-58.162v-58.162m0 58.162h59.424m-59.424-58.162v-58.162m0 58.162h59.424m-59.424-58.162v-58.163m0 58.163h59.424m-59.424-58.163V99.569m0 58.162h59.424m-59.424-58.162V41.407m0 58.162h59.424m-59.424-58.162h59.424m0 348.973v-58.162m0 58.162h59.425m-59.425-58.162v-58.162m0 58.162h59.425m-59.425-58.162v-58.162m0 58.162h59.425m-59.425-58.162v-58.163m0 58.163h59.425m-59.425-58.163V99.569m0 58.162h59.425m-59.425-58.162V41.407m0 58.162h59.425m-59.425-58.162h59.425m0 348.973v-58.162m0 58.162h59.424m-59.424-58.162v-58.162m0 58.162h59.424m-59.424-58.162v-58.162m0 58.162h59.424m-59.424-58.162v-58.163m0 58.163h59.424m-59.424-58.163V99.569m0 58.162h59.424m-59.424-58.162V41.407m0 58.162h59.424m-59.424-58.162h59.424m0 348.973v-58.162m0 58.162h59.424m-59.424-58.162v-58.162m0 58.162h59.424m-59.424-58.162v-58.162m0 58.162h59.424m-59.424-58.162v-58.163m0 58.163h59.424m-59.424-58.163V99.569m0 58.162h59.424m-59.424-58.162V41.407m0 58.162h59.424m-59.424-58.162h59.424m0 348.973v-58.162m0 58.162h59.424m-59.424-58.162v-58.162m0 58.162h59.424m-59.424-58.162v-58.162m0 58.162h59.424m-59.424-58.162v-58.163m0 58.163h59.424m-59.424-58.163V99.569m0 58.162h59.424m-59.424-58.162V41.407m0 58.162h59.424m-59.424-58.162h59.424m0 348.973v-58.162m0 58.162h59.425m-59.425-58.162v-58.162m0 58.162h59.425m-59.425-58.162v-58.162m0 58.162h59.425m-59.425-58.162v-58.163m0 58.163h59.425m-59.425-58.163V99.569m0 58.162h59.425m-59.425-58.162V41.407m0 58.162h59.425m-59.425-58.162h59.425m0 348.973v-58.162m0 58.162h59.424m-59.424-58.162v-58.162m0 58.162h59.424m-59.424-58.162v-58.162m0 58.162h59.424m-59.424-58.162v-58.163m0 58.163h59.424m-59.424-58.163V99.569m0 58.162h59.424m-59.424-58.162V41.407m0 58.162h59.424m-59.424-58.162h59.424m0 348.973v-58.162m0 58.162h59.424m-59.424-58.162v-58.162m0 58.162h59.424m-59.424-58.162v-58.162m0 58.162h59.424m-59.424-58.162v-58.163m0 58.163h59.424m-59.424-58.163V99.569m0 58.162h59.424m-59.424-58.162V41.407m0 58.162h59.424m-59.424-58.162h59.424m0 348.973v-58.162m0 58.162h59.424m-59.424-58.162v-58.162m0 58.162h59.424m-59.424-58.162v-58.162m0 58.162h59.424m-59.424-58.162v-58.163m0 58.163h59.424m-59.424-58.163V99.569m0 58.162h59.424m-59.424-58.162V41.407m0 58.162h59.424m-59.424-58.162h59.424m0 348.973v-58.162m0 58.162h59.425m-59.425-58.162v-58.162m0 58.162h59.425m-59.425-58.162v-58.162m0 58.162h59.425m-59.425-58.162v-58.163m0 58.163h59.425m-59.425-58.163V99.569m0 58.162h59.425M753.49 99.569V41.407m0 58.162h59.425M753.49 41.407h59.425m0 348.973v-58.162m0 58.162h59.424m-59.424-58.162v-58.162m0 58.162h59.424m-59.424-58.162v-58.162m0 58.162h59.424m-59.424-58.162v-58.163m0 58.163h59.424m-59.424-58.163V99.569m0 58.162h59.424m-59.424-58.162V41.407m0 58.162h59.424m-59.424-58.162h59.424m0 348.973v-58.162m0 58.162h59.424m-59.424-58.162v-58.162m0 58.162h59.424m-59.424-58.162v-58.162m0 58.162h59.424m-59.424-58.162v-58.163m0 58.163h59.424m-59.424-58.163V99.569m0 58.162h59.424m-59.424-58.162V41.407m0 58.162h59.424m-59.424-58.162h59.424m0 348.973v-58.162m0 58.162h59.424m-59.424-58.162v-58.162m0 58.162h59.424m-59.424-58.162v-58.162m0 58.162h59.424m-59.424-58.162v-58.163m0 58.163h59.424m-59.424-58.163V99.569m0 58.162h59.424m-59.424-58.162V41.407m0 58.162h59.424m-59.424-58.162h59.424m0 348.973v-58.162m0 58.162h59.423m-59.423-58.162v-58.162m0 58.162h59.423m-59.423-58.162v-58.162m0 58.162h59.423m-59.423-58.162v-58.163m0 58.163h59.423m-59.423-58.163V99.569m0 58.162h59.423m-59.423-58.162V41.407m0 58.162h59.423m-59.423-58.162h59.423m0 348.973v-58.162m0 58.162h59.43m-59.43-58.162v-58.162m0 58.162h59.43m-59.43-58.162v-58.162m0 58.162h59.43m-59.43-58.162v-58.163m0 58.163h59.43m-59.43-58.163V99.569m0 58.162h59.43m-59.43-58.162V41.407m0 58.162h59.43m-59.43-58.162h59.43m0 348.973v-58.162m0 58.162h59.42m-59.42-58.162v-58.162m0 58.162h59.42m-59.42-58.162v-58.162m0 58.162h59.42m-59.42-58.162v-58.163m0 58.163h59.42m-59.42-58.163V99.569m0 58.162h59.42m-59.42-58.162V41.407m0 58.162h59.42m-59.42-58.162h59.42m0 348.973v-58.162m0 58.162h59.42m-59.42-58.162v-58.162m0 58.162h59.42m-59.42-58.162v-58.162m0 58.162h59.42m-59.42-58.162v-58.163m0 58.163h59.42m-59.42-58.163V99.569m0 58.162h59.42m-59.42-58.162V41.407m0 58.162h59.42m-59.42-58.162h59.42m0 348.973v-58.162m0 58.162h59.43m-59.43-58.162v-58.162m0 58.162h59.43m-59.43-58.162v-58.162m0 58.162h59.43m-59.43-58.162v-58.163m0 58.163h59.43m-59.43-58.163V99.569m0 58.162h59.43m-59.43-58.162V41.407m0 58.162h59.43m-59.43-58.162h59.43m0 348.973v-58.162m0 58.162h59.42m-59.42-58.162v-58.162m0 58.162h59.42m-59.42-58.162v-58.162m0 58.162h59.42m-59.42-58.162v-58.163m0 58.163h59.42m-59.42-58.163V99.569m0 58.162h59.42m-59.42-58.162V41.407m0 58.162h59.42m-59.42-58.162h59.42m0 348.973v-58.162m0 58.162h59.43m-59.43-58.162v-58.162m0 58.162h59.43m-59.43-58.162v-58.162m0 58.162h59.43m-59.43-58.162v-58.163m0 58.163h59.43m-59.43-58.163V99.569m0 58.162h59.43m-59.43-58.162V41.407m0 58.162h59.43m-59.43-58.162h59.43m0 348.973v-58.162m0 58.162h59.42m-59.42-58.162v-58.162m0 58.162h59.42m-59.42-58.162v-58.162m0 58.162h59.42m-59.42-58.162v-58.163m0 58.163h59.42m-59.42-58.163V99.569m0 58.162h59.42m-59.42-58.162V41.407m0 58.162h59.42m-59.42-58.162h59.42m0 348.973v-58.162m0 58.162h59.43m-59.43-58.162v-58.162m0 58.162h59.43m-59.43-58.162v-58.162m0 58.162h59.43m-59.43-58.162v-58.163m0 58.163h59.43m-59.43-58.163V99.569m0 58.162h59.43m-59.43-58.162V41.407m0 58.162h59.43m-59.43-58.162h59.43m0 348.973v-58.162m0 58.162h59.42v-58.162m-59.42 0v-58.162m0 58.162h59.42m-59.42-58.162v-58.162m0 58.162h59.42m-59.42-58.162v-58.163m0 58.163h59.42m-59.42-58.163V99.569m0 58.162h59.42m-59.42-58.162V41.407m0 58.162h59.42m-59.42-58.162h59.42V99.57m0 232.649v-58.162m0 0v-58.162m0 0v-58.163m0 0V99.569"/>
</svg>
