<svg width="446" height="157" viewBox="0 0 446 157" fill="none" xmlns="http://www.w3.org/2000/svg">
<g filter="url(#filter0_d_16_7612)">
<mask id="path-1-outside-1_16_7612" maskUnits="userSpaceOnUse" x="0" y="0" width="446" height="142" fill="black">
<rect fill="white" width="446" height="142"/>
<path d="M47 15H63V31H47V15Z"/>
<path d="M399 15H383V31H399V15Z"/>
<path d="M63 15H79V31H63V15Z"/>
<path d="M383 15H367V31H383V15Z"/>
<path d="M79 15H95V31H79V15Z"/>
<path d="M367 15H351V31H367V15Z"/>
<path d="M95 15H111V31H95V15Z"/>
<path d="M351 15H335V31H351V15Z"/>
<path d="M111 15H127V31H111V15Z"/>
<path d="M335 15H319V31H335V15Z"/>
<path d="M127 15H143V31H127V15Z"/>
<path d="M319 15H303V31H319V15Z"/>
<path d="M143 15H159V31H143V15Z"/>
<path d="M303 15H287V31H303V15Z"/>
<path d="M159 15H175V31H159V15Z"/>
<path d="M287 15H271V31H287V15Z"/>
<path d="M175 15H191V31H175V15Z"/>
<path d="M271 15H255V31H271V15Z"/>
<path d="M191 15H207V31H191V15Z"/>
<path d="M255 15H239V31H255V15Z"/>
<path d="M207 15H223V31H207V15Z"/>
<path d="M239 15H223V31H239V15Z"/>
<path d="M31 31H47V47H31V31Z"/>
<path d="M415 31H399V47H415V31Z"/>
<path d="M47 31H63V47H47V31Z"/>
<path d="M399 31H383V47H399V31Z"/>
<path d="M63 31H79V47H63V31Z"/>
<path d="M383 31H367V47H383V31Z"/>
<path d="M79 31H95V47H79V31Z"/>
<path d="M367 31H351V47H367V31Z"/>
<path d="M95 31H111V47H95V31Z"/>
<path d="M351 31H335V47H351V31Z"/>
<path d="M111 31H127V47H111V31Z"/>
<path d="M335 31H319V47H335V31Z"/>
<path d="M127 31H143V47H127V31Z"/>
<path d="M319 31H303V47H319V31Z"/>
<path d="M143 31H159V47H143V31Z"/>
<path d="M303 31H287V47H303V31Z"/>
<path d="M159 31H175V47H159V31Z"/>
<path d="M287 31H271V47H287V31Z"/>
<path d="M175 31H191V47H175V31Z"/>
<path d="M271 31H255V47H271V31Z"/>
<path d="M191 31H207V47H191V31Z"/>
<path d="M255 31H239V47H255V31Z"/>
<path d="M207 31H223V47H207V31Z"/>
<path d="M239 31H223V47H239V31Z"/>
<path d="M15 47H31V63H15V47Z"/>
<path d="M431 47H415V63H431V47Z"/>
<path d="M31 47H47V63H31V47Z"/>
<path d="M415 47H399V63H415V47Z"/>
<path d="M47 47H63V63H47V47Z"/>
<path d="M399 47H383V63H399V47Z"/>
<path d="M63 47H79V63H63V47Z"/>
<path d="M383 47H367V63H383V47Z"/>
<path d="M79 47H95V63H79V47Z"/>
<path d="M367 47H351V63H367V47Z"/>
<path d="M95 47H111V63H95V47Z"/>
<path d="M351 47H335V63H351V47Z"/>
<path d="M111 47H127V63H111V47Z"/>
<path d="M335 47H319V63H335V47Z"/>
<path d="M127 47H143V63H127V47Z"/>
<path d="M319 47H303V63H319V47Z"/>
<path d="M143 47H159V63H143V47Z"/>
<path d="M303 47H287V63H303V47Z"/>
<path d="M159 47H175V63H159V47Z"/>
<path d="M287 47H271V63H287V47Z"/>
<path d="M175 47H191V63H175V47Z"/>
<path d="M271 47H255V63H271V47Z"/>
<path d="M191 47H207V63H191V47Z"/>
<path d="M255 47H239V63H255V47Z"/>
<path d="M207 47H223V63H207V47Z"/>
<path d="M239 47H223V63H239V47Z"/>
<path d="M15 63H31V79H15V63Z"/>
<path d="M431 63H415V79H431V63Z"/>
<path d="M31 63H47V79H31V63Z"/>
<path d="M415 63H399V79H415V63Z"/>
<path d="M47 63H63V79H47V63Z"/>
<path d="M399 63H383V79H399V63Z"/>
<path d="M63 63H79V79H63V63Z"/>
<path d="M383 63H367V79H383V63Z"/>
<path d="M79 63H95V79H79V63Z"/>
<path d="M367 63H351V79H367V63Z"/>
<path d="M95 63H111V79H95V63Z"/>
<path d="M351 63H335V79H351V63Z"/>
<path d="M111 63H127V79H111V63Z"/>
<path d="M335 63H319V79H335V63Z"/>
<path d="M127 63H143V79H127V63Z"/>
<path d="M319 63H303V79H319V63Z"/>
<path d="M143 63H159V79H143V63Z"/>
<path d="M303 63H287V79H303V63Z"/>
<path d="M159 63H175V79H159V63Z"/>
<path d="M287 63H271V79H287V63Z"/>
<path d="M175 63H191V79H175V63Z"/>
<path d="M271 63H255V79H271V63Z"/>
<path d="M191 63H207V79H191V63Z"/>
<path d="M255 63H239V79H255V63Z"/>
<path d="M207 63H223V79H207V63Z"/>
<path d="M239 63H223V79H239V63Z"/>
<path d="M15 79H31V95H15V79Z"/>
<path d="M431 79H415V95H431V79Z"/>
<path d="M31 79H47V95H31V79Z"/>
<path d="M415 79H399V95H415V79Z"/>
<path d="M47 79H63V95H47V79Z"/>
<path d="M399 79H383V95H399V79Z"/>
<path d="M63 79H79V95H63V79Z"/>
<path d="M383 79H367V95H383V79Z"/>
<path d="M79 79H95V95H79V79Z"/>
<path d="M367 79H351V95H367V79Z"/>
<path d="M95 79H111V95H95V79Z"/>
<path d="M351 79H335V95H351V79Z"/>
<path d="M111 79H127V95H111V79Z"/>
<path d="M335 79H319V95H335V79Z"/>
<path d="M127 79H143V95H127V79Z"/>
<path d="M319 79H303V95H319V79Z"/>
<path d="M143 79H159V95H143V79Z"/>
<path d="M303 79H287V95H303V79Z"/>
<path d="M159 79H175V95H159V79Z"/>
<path d="M287 79H271V95H287V79Z"/>
<path d="M175 79H191V95H175V79Z"/>
<path d="M271 79H255V95H271V79Z"/>
<path d="M191 79H207V95H191V79Z"/>
<path d="M255 79H239V95H255V79Z"/>
<path d="M207 79H223V95H207V79Z"/>
<path d="M239 79H223V95H239V79Z"/>
<path d="M31 95H47V111H31V95Z"/>
<path d="M415 95H399V111H415V95Z"/>
<path d="M47 95H63V111H47V95Z"/>
<path d="M399 95H383V111H399V95Z"/>
<path d="M63 95H79V111H63V95Z"/>
<path d="M383 95H367V111H383V95Z"/>
<path d="M79 95H95V111H79V95Z"/>
<path d="M367 95H351V111H367V95Z"/>
<path d="M95 95H111V111H95V95Z"/>
<path d="M351 95H335V111H351V95Z"/>
<path d="M111 95H127V111H111V95Z"/>
<path d="M335 95H319V111H335V95Z"/>
<path d="M127 95H143V111H127V95Z"/>
<path d="M319 95H303V111H319V95Z"/>
<path d="M143 95H159V111H143V95Z"/>
<path d="M303 95H287V111H303V95Z"/>
<path d="M159 95H175V111H159V95Z"/>
<path d="M287 95H271V111H287V95Z"/>
<path d="M175 95H191V111H175V95Z"/>
<path d="M271 95H255V111H271V95Z"/>
<path d="M191 95H207V111H191V95Z"/>
<path d="M255 95H239V111H255V95Z"/>
<path d="M207 95H223V111H207V95Z"/>
<path d="M239 95H223V111H239V95Z"/>
<path d="M47 111H63V127H47V111Z"/>
<path d="M399 111H383V127H399V111Z"/>
<path d="M63 111H79V127H63V111Z"/>
<path d="M383 111H367V127H383V111Z"/>
<path d="M79 111H95V127H79V111Z"/>
<path d="M367 111H351V127H367V111Z"/>
<path d="M95 111H111V127H95V111Z"/>
<path d="M351 111H335V127H351V111Z"/>
<path d="M111 111H127V127H111V111Z"/>
<path d="M335 111H319V127H335V111Z"/>
<path d="M127 111H143V127H127V111Z"/>
<path d="M319 111H303V127H319V111Z"/>
<path d="M143 111H159V127H143V111Z"/>
<path d="M303 111H287V127H303V111Z"/>
<path d="M159 111H175V127H159V111Z"/>
<path d="M287 111H271V127H287V111Z"/>
<path d="M175 111H191V127H175V111Z"/>
<path d="M271 111H255V127H271V111Z"/>
<path d="M191 111H207V127H191V111Z"/>
<path d="M255 111H239V127H255V111Z"/>
<path d="M207 111H223V127H207V111Z"/>
<path d="M239 111H223V127H239V111Z"/>
</mask>
<path d="M47 15H63V31H47V15Z" fill="#2B2B2B" shape-rendering="crispEdges"/>
<path d="M399 15H383V31H399V15Z" fill="#2B2B2B" shape-rendering="crispEdges"/>
<path d="M63 15H79V31H63V15Z" fill="#2B2B2B" shape-rendering="crispEdges"/>
<path d="M383 15H367V31H383V15Z" fill="#2B2B2B" shape-rendering="crispEdges"/>
<path d="M79 15H95V31H79V15Z" fill="#2B2B2B" shape-rendering="crispEdges"/>
<path d="M367 15H351V31H367V15Z" fill="#2B2B2B" shape-rendering="crispEdges"/>
<path d="M95 15H111V31H95V15Z" fill="#2B2B2B" shape-rendering="crispEdges"/>
<path d="M351 15H335V31H351V15Z" fill="#2B2B2B" shape-rendering="crispEdges"/>
<path d="M111 15H127V31H111V15Z" fill="#2B2B2B" shape-rendering="crispEdges"/>
<path d="M335 15H319V31H335V15Z" fill="#2B2B2B" shape-rendering="crispEdges"/>
<path d="M127 15H143V31H127V15Z" fill="#2B2B2B" shape-rendering="crispEdges"/>
<path d="M319 15H303V31H319V15Z" fill="#2B2B2B" shape-rendering="crispEdges"/>
<path d="M143 15H159V31H143V15Z" fill="#2B2B2B" shape-rendering="crispEdges"/>
<path d="M303 15H287V31H303V15Z" fill="#2B2B2B" shape-rendering="crispEdges"/>
<path d="M159 15H175V31H159V15Z" fill="#2B2B2B" shape-rendering="crispEdges"/>
<path d="M287 15H271V31H287V15Z" fill="#2B2B2B" shape-rendering="crispEdges"/>
<path d="M175 15H191V31H175V15Z" fill="#2B2B2B" shape-rendering="crispEdges"/>
<path d="M271 15H255V31H271V15Z" fill="#2B2B2B" shape-rendering="crispEdges"/>
<path d="M191 15H207V31H191V15Z" fill="#2B2B2B" shape-rendering="crispEdges"/>
<path d="M255 15H239V31H255V15Z" fill="#2B2B2B" shape-rendering="crispEdges"/>
<path d="M207 15H223V31H207V15Z" fill="#2B2B2B" shape-rendering="crispEdges"/>
<path d="M239 15H223V31H239V15Z" fill="#2B2B2B" shape-rendering="crispEdges"/>
<path d="M31 31H47V47H31V31Z" fill="#2B2B2B" shape-rendering="crispEdges"/>
<path d="M415 31H399V47H415V31Z" fill="#2B2B2B" shape-rendering="crispEdges"/>
<path d="M47 31H63V47H47V31Z" fill="#2B2B2B" shape-rendering="crispEdges"/>
<path d="M399 31H383V47H399V31Z" fill="#2B2B2B" shape-rendering="crispEdges"/>
<path d="M63 31H79V47H63V31Z" fill="#232323" shape-rendering="crispEdges"/>
<path d="M383 31H367V47H383V31Z" fill="#232323" shape-rendering="crispEdges"/>
<path d="M79 31H95V47H79V31Z" fill="#232323" shape-rendering="crispEdges"/>
<path d="M367 31H351V47H367V31Z" fill="#232323" shape-rendering="crispEdges"/>
<path d="M95 31H111V47H95V31Z" fill="#232323" shape-rendering="crispEdges"/>
<path d="M351 31H335V47H351V31Z" fill="#232323" shape-rendering="crispEdges"/>
<path d="M111 31H127V47H111V31Z" fill="#232323" shape-rendering="crispEdges"/>
<path d="M335 31H319V47H335V31Z" fill="#232323" shape-rendering="crispEdges"/>
<path d="M127 31H143V47H127V31Z" fill="#232323" shape-rendering="crispEdges"/>
<path d="M319 31H303V47H319V31Z" fill="#232323" shape-rendering="crispEdges"/>
<path d="M143 31H159V47H143V31Z" fill="#232323" shape-rendering="crispEdges"/>
<path d="M303 31H287V47H303V31Z" fill="#232323" shape-rendering="crispEdges"/>
<path d="M159 31H175V47H159V31Z" fill="#232323" shape-rendering="crispEdges"/>
<path d="M287 31H271V47H287V31Z" fill="#232323" shape-rendering="crispEdges"/>
<path d="M175 31H191V47H175V31Z" fill="#232323" shape-rendering="crispEdges"/>
<path d="M271 31H255V47H271V31Z" fill="#232323" shape-rendering="crispEdges"/>
<path d="M191 31H207V47H191V31Z" fill="#232323" shape-rendering="crispEdges"/>
<path d="M255 31H239V47H255V31Z" fill="#232323" shape-rendering="crispEdges"/>
<path d="M207 31H223V47H207V31Z" fill="#232323" shape-rendering="crispEdges"/>
<path d="M239 31H223V47H239V31Z" fill="#232323" shape-rendering="crispEdges"/>
<path d="M15 47H31V63H15V47Z" fill="#2B2B2B" shape-rendering="crispEdges"/>
<path d="M431 47H415V63H431V47Z" fill="#2B2B2B" shape-rendering="crispEdges"/>
<path d="M31 47H47V63H31V47Z" fill="#2B2B2B" shape-rendering="crispEdges"/>
<path d="M415 47H399V63H415V47Z" fill="#2B2B2B" shape-rendering="crispEdges"/>
<path d="M47 47H63V63H47V47Z" fill="#232323" shape-rendering="crispEdges"/>
<path d="M399 47H383V63H399V47Z" fill="#232323" shape-rendering="crispEdges"/>
<path d="M63 47H79V63H63V47Z" fill="#232323" shape-rendering="crispEdges"/>
<path d="M383 47H367V63H383V47Z" fill="#232323" shape-rendering="crispEdges"/>
<path d="M79 47H95V63H79V47Z" fill="#232323" shape-rendering="crispEdges"/>
<path d="M367 47H351V63H367V47Z" fill="#232323" shape-rendering="crispEdges"/>
<path d="M95 47H111V63H95V47Z" fill="#232323" shape-rendering="crispEdges"/>
<path d="M351 47H335V63H351V47Z" fill="#232323" shape-rendering="crispEdges"/>
<path d="M111 47H127V63H111V47Z" fill="#232323" shape-rendering="crispEdges"/>
<path d="M335 47H319V63H335V47Z" fill="#232323" shape-rendering="crispEdges"/>
<path d="M127 47H143V63H127V47Z" fill="#232323" shape-rendering="crispEdges"/>
<path d="M319 47H303V63H319V47Z" fill="#232323" shape-rendering="crispEdges"/>
<path d="M143 47H159V63H143V47Z" fill="#232323" shape-rendering="crispEdges"/>
<path d="M303 47H287V63H303V47Z" fill="#232323" shape-rendering="crispEdges"/>
<path d="M159 47H175V63H159V47Z" fill="#232323" shape-rendering="crispEdges"/>
<path d="M287 47H271V63H287V47Z" fill="#232323" shape-rendering="crispEdges"/>
<path d="M175 47H191V63H175V47Z" fill="#232323" shape-rendering="crispEdges"/>
<path d="M271 47H255V63H271V47Z" fill="#232323" shape-rendering="crispEdges"/>
<path d="M191 47H207V63H191V47Z" fill="#232323" shape-rendering="crispEdges"/>
<path d="M255 47H239V63H255V47Z" fill="#232323" shape-rendering="crispEdges"/>
<path d="M207 47H223V63H207V47Z" fill="#232323" shape-rendering="crispEdges"/>
<path d="M239 47H223V63H239V47Z" fill="#232323" shape-rendering="crispEdges"/>
<path d="M15 63H31V79H15V63Z" fill="#2B2B2B" shape-rendering="crispEdges"/>
<path d="M431 63H415V79H431V63Z" fill="#2B2B2B" shape-rendering="crispEdges"/>
<path d="M31 63H47V79H31V63Z" fill="#232323" shape-rendering="crispEdges"/>
<path d="M415 63H399V79H415V63Z" fill="#232323" shape-rendering="crispEdges"/>
<path d="M47 63H63V79H47V63Z" fill="#232323" shape-rendering="crispEdges"/>
<path d="M399 63H383V79H399V63Z" fill="#232323" shape-rendering="crispEdges"/>
<path d="M63 63H79V79H63V63Z" fill="#232323" shape-rendering="crispEdges"/>
<path d="M383 63H367V79H383V63Z" fill="#232323" shape-rendering="crispEdges"/>
<path d="M79 63H95V79H79V63Z" fill="#232323" shape-rendering="crispEdges"/>
<path d="M367 63H351V79H367V63Z" fill="#232323" shape-rendering="crispEdges"/>
<path d="M95 63H111V79H95V63Z" fill="#232323" shape-rendering="crispEdges"/>
<path d="M351 63H335V79H351V63Z" fill="#232323" shape-rendering="crispEdges"/>
<path d="M111 63H127V79H111V63Z" fill="#232323" shape-rendering="crispEdges"/>
<path d="M335 63H319V79H335V63Z" fill="#232323" shape-rendering="crispEdges"/>
<path d="M127 63H143V79H127V63Z" fill="#232323" shape-rendering="crispEdges"/>
<path d="M319 63H303V79H319V63Z" fill="#232323" shape-rendering="crispEdges"/>
<path d="M143 63H159V79H143V63Z" fill="#232323" shape-rendering="crispEdges"/>
<path d="M303 63H287V79H303V63Z" fill="#232323" shape-rendering="crispEdges"/>
<path d="M159 63H175V79H159V63Z" fill="#232323" shape-rendering="crispEdges"/>
<path d="M287 63H271V79H287V63Z" fill="#232323" shape-rendering="crispEdges"/>
<path d="M175 63H191V79H175V63Z" fill="#232323" shape-rendering="crispEdges"/>
<path d="M271 63H255V79H271V63Z" fill="#232323" shape-rendering="crispEdges"/>
<path d="M191 63H207V79H191V63Z" fill="#232323" shape-rendering="crispEdges"/>
<path d="M255 63H239V79H255V63Z" fill="#232323" shape-rendering="crispEdges"/>
<path d="M207 63H223V79H207V63Z" fill="#232323" shape-rendering="crispEdges"/>
<path d="M239 63H223V79H239V63Z" fill="#232323" shape-rendering="crispEdges"/>
<path d="M15 79H31V95H15V79Z" fill="#2B2B2B" shape-rendering="crispEdges"/>
<path d="M431 79H415V95H431V79Z" fill="#2B2B2B" shape-rendering="crispEdges"/>
<path d="M31 79H47V95H31V79Z" fill="#2B2B2B" shape-rendering="crispEdges"/>
<path d="M415 79H399V95H415V79Z" fill="#2A2A2A" shape-rendering="crispEdges"/>
<path d="M47 79H63V95H47V79Z" fill="#232323" shape-rendering="crispEdges"/>
<path d="M399 79H383V95H399V79Z" fill="#232323" shape-rendering="crispEdges"/>
<path d="M63 79H79V95H63V79Z" fill="#232323" shape-rendering="crispEdges"/>
<path d="M383 79H367V95H383V79Z" fill="#232323" shape-rendering="crispEdges"/>
<path d="M79 79H95V95H79V79Z" fill="#232323" shape-rendering="crispEdges"/>
<path d="M367 79H351V95H367V79Z" fill="#232323" shape-rendering="crispEdges"/>
<path d="M95 79H111V95H95V79Z" fill="#232323" shape-rendering="crispEdges"/>
<path d="M351 79H335V95H351V79Z" fill="#232323" shape-rendering="crispEdges"/>
<path d="M111 79H127V95H111V79Z" fill="#232323" shape-rendering="crispEdges"/>
<path d="M335 79H319V95H335V79Z" fill="#232323" shape-rendering="crispEdges"/>
<path d="M127 79H143V95H127V79Z" fill="#232323" shape-rendering="crispEdges"/>
<path d="M319 79H303V95H319V79Z" fill="#232323" shape-rendering="crispEdges"/>
<path d="M143 79H159V95H143V79Z" fill="#232323" shape-rendering="crispEdges"/>
<path d="M303 79H287V95H303V79Z" fill="#232323" shape-rendering="crispEdges"/>
<path d="M159 79H175V95H159V79Z" fill="#232323" shape-rendering="crispEdges"/>
<path d="M287 79H271V95H287V79Z" fill="#232323" shape-rendering="crispEdges"/>
<path d="M175 79H191V95H175V79Z" fill="#232323" shape-rendering="crispEdges"/>
<path d="M271 79H255V95H271V79Z" fill="#232323" shape-rendering="crispEdges"/>
<path d="M191 79H207V95H191V79Z" fill="#232323" shape-rendering="crispEdges"/>
<path d="M255 79H239V95H255V79Z" fill="#232323" shape-rendering="crispEdges"/>
<path d="M207 79H223V95H207V79Z" fill="#232323" shape-rendering="crispEdges"/>
<path d="M239 79H223V95H239V79Z" fill="#232323" shape-rendering="crispEdges"/>
<path d="M31 95H47V111H31V95Z" fill="#2B2B2B" shape-rendering="crispEdges"/>
<path d="M415 95H399V111H415V95Z" fill="#2B2B2B" shape-rendering="crispEdges"/>
<path d="M47 95H63V111H47V95Z" fill="#2B2B2B" shape-rendering="crispEdges"/>
<path d="M399 95H383V111H399V95Z" fill="#2B2B2B" shape-rendering="crispEdges"/>
<path d="M63 95H79V111H63V95Z" fill="#232323" shape-rendering="crispEdges"/>
<path d="M383 95H367V111H383V95Z" fill="#232323" shape-rendering="crispEdges"/>
<path d="M79 95H95V111H79V95Z" fill="#232323" shape-rendering="crispEdges"/>
<path d="M367 95H351V111H367V95Z" fill="#232323" shape-rendering="crispEdges"/>
<path d="M95 95H111V111H95V95Z" fill="#232323" shape-rendering="crispEdges"/>
<path d="M351 95H335V111H351V95Z" fill="#232323" shape-rendering="crispEdges"/>
<path d="M111 95H127V111H111V95Z" fill="#232323" shape-rendering="crispEdges"/>
<path d="M335 95H319V111H335V95Z" fill="#232323" shape-rendering="crispEdges"/>
<path d="M127 95H143V111H127V95Z" fill="#232323" shape-rendering="crispEdges"/>
<path d="M319 95H303V111H319V95Z" fill="#232323" shape-rendering="crispEdges"/>
<path d="M143 95H159V111H143V95Z" fill="#232323" shape-rendering="crispEdges"/>
<path d="M303 95H287V111H303V95Z" fill="#232323" shape-rendering="crispEdges"/>
<path d="M159 95H175V111H159V95Z" fill="#232323" shape-rendering="crispEdges"/>
<path d="M287 95H271V111H287V95Z" fill="#232323" shape-rendering="crispEdges"/>
<path d="M175 95H191V111H175V95Z" fill="#232323" shape-rendering="crispEdges"/>
<path d="M271 95H255V111H271V95Z" fill="#232323" shape-rendering="crispEdges"/>
<path d="M191 95H207V111H191V95Z" fill="#232323" shape-rendering="crispEdges"/>
<path d="M255 95H239V111H255V95Z" fill="#232323" shape-rendering="crispEdges"/>
<path d="M207 95H223V111H207V95Z" fill="#232323" shape-rendering="crispEdges"/>
<path d="M239 95H223V111H239V95Z" fill="#232323" shape-rendering="crispEdges"/>
<path d="M47 111H63V127H47V111Z" fill="#2B2B2B" shape-rendering="crispEdges"/>
<path d="M399 111H383V127H399V111Z" fill="#2B2B2B" shape-rendering="crispEdges"/>
<path d="M63 111H79V127H63V111Z" fill="#2B2B2B" shape-rendering="crispEdges"/>
<path d="M383 111H367V127H383V111Z" fill="#2B2B2B" shape-rendering="crispEdges"/>
<path d="M79 111H95V127H79V111Z" fill="#2B2B2B" shape-rendering="crispEdges"/>
<path d="M367 111H351V127H367V111Z" fill="#2B2B2B" shape-rendering="crispEdges"/>
<path d="M95 111H111V127H95V111Z" fill="#2B2B2B" shape-rendering="crispEdges"/>
<path d="M351 111H335V127H351V111Z" fill="#2B2B2B" shape-rendering="crispEdges"/>
<path d="M111 111H127V127H111V111Z" fill="#2B2B2B" shape-rendering="crispEdges"/>
<path d="M335 111H319V127H335V111Z" fill="#2B2B2B" shape-rendering="crispEdges"/>
<path d="M127 111H143V127H127V111Z" fill="#2B2B2B" shape-rendering="crispEdges"/>
<path d="M319 111H303V127H319V111Z" fill="#2B2B2B" shape-rendering="crispEdges"/>
<path d="M143 111H159V127H143V111Z" fill="#2B2B2B" shape-rendering="crispEdges"/>
<path d="M303 111H287V127H303V111Z" fill="#2B2B2B" shape-rendering="crispEdges"/>
<path d="M159 111H175V127H159V111Z" fill="#2B2B2B" shape-rendering="crispEdges"/>
<path d="M287 111H271V127H287V111Z" fill="#2B2B2B" shape-rendering="crispEdges"/>
<path d="M175 111H191V127H175V111Z" fill="#2B2B2B" shape-rendering="crispEdges"/>
<path d="M271 111H255V127H271V111Z" fill="#2B2B2B" shape-rendering="crispEdges"/>
<path d="M191 111H207V127H191V111Z" fill="#2B2B2B" shape-rendering="crispEdges"/>
<path d="M255 111H239V127H255V111Z" fill="#2B2B2B" shape-rendering="crispEdges"/>
<path d="M207 111H223V127H207V111Z" fill="#2B2B2B" shape-rendering="crispEdges"/>
<path d="M239 111H223V127H239V111Z" fill="#2B2B2B" shape-rendering="crispEdges"/>
<path d="M47 31V23.5H39.5V31H47ZM399 31H406.5V23.5H399V31ZM31 47V39.5H23.5V47H31ZM415 47H422.5V39.5H415V47ZM31 95H23.5V102.5H31V95ZM415 95V102.5H422.5V95H415ZM47 111H39.5V118.5H47V111ZM399 111V118.5H406.5V111H399ZM55.5 15V31H70.5V15H55.5ZM63 23.5H47V38.5H63V23.5ZM375.5 15V31H390.5V15H375.5ZM383 38.5H399V23.5H383V38.5ZM71.5 15V31H86.5V15H71.5ZM79 23.5H63V38.5H79V23.5ZM359.5 15V31H374.5V15H359.5ZM367 38.5H383V23.5H367V38.5ZM87.5 15V31H102.5V15H87.5ZM95 23.5H79V38.5H95V23.5ZM343.5 15V31H358.5V15H343.5ZM351 38.5H367V23.5H351V38.5ZM103.5 15V31H118.5V15H103.5ZM111 23.5H95V38.5H111V23.5ZM327.5 15V31H342.5V15H327.5ZM335 38.5H351V23.5H335V38.5ZM119.5 15V31H134.5V15H119.5ZM127 23.5H111V38.5H127V23.5ZM311.5 15V31H326.5V15H311.5ZM319 38.5H335V23.5H319V38.5ZM135.5 15V31H150.5V15H135.5ZM143 23.5H127V38.5H143V23.5ZM295.5 15V31H310.5V15H295.5ZM303 38.5H319V23.5H303V38.5ZM151.5 15V31H166.5V15H151.5ZM159 23.5H143V38.5H159V23.5ZM279.5 15V31H294.5V15H279.5ZM287 38.5H303V23.5H287V38.5ZM167.5 15V31H182.5V15H167.5ZM175 23.5H159V38.5H175V23.5ZM263.5 15V31H278.5V15H263.5ZM271 38.5H287V23.5H271V38.5ZM183.5 15V31H198.5V15H183.5ZM191 23.5H175V38.5H191V23.5ZM247.5 15V31H262.5V15H247.5ZM255 38.5H271V23.5H255V38.5ZM199.5 15V31H214.5V15H199.5ZM207 23.5H191V38.5H207V23.5ZM231.5 15V31H246.5V15H231.5ZM239 38.5H255V23.5H239V38.5ZM215.5 15V31H230.5V15H215.5ZM223 23.5H207V38.5H223V23.5ZM223 38.5H239V23.5H223V38.5ZM39.5 31V47H54.5V31H39.5ZM47 39.5H31V54.5H47V39.5ZM391.5 31V47H406.5V31H391.5ZM399 54.5H415V39.5H399V54.5ZM55.5 31V47H70.5V31H55.5ZM63 39.5H47V54.5H63V39.5ZM375.5 31V47H390.5V31H375.5ZM383 54.5H399V39.5H383V54.5ZM71.5 31V47H86.5V31H71.5ZM79 39.5H63V54.5H79V39.5ZM359.5 31V47H374.5V31H359.5ZM367 54.5H383V39.5H367V54.5ZM87.5 31V47H102.5V31H87.5ZM95 39.5H79V54.5H95V39.5ZM343.5 31V47H358.5V31H343.5ZM351 54.5H367V39.5H351V54.5ZM103.5 31V47H118.5V31H103.5ZM111 39.5H95V54.5H111V39.5ZM327.5 31V47H342.5V31H327.5ZM335 54.5H351V39.5H335V54.5ZM119.5 31V47H134.5V31H119.5ZM127 39.5H111V54.5H127V39.5ZM311.5 31V47H326.5V31H311.5ZM319 54.5H335V39.5H319V54.5ZM135.5 31V47H150.5V31H135.5ZM143 39.5H127V54.5H143V39.5ZM295.5 31V47H310.5V31H295.5ZM303 54.5H319V39.5H303V54.5ZM151.5 31V47H166.5V31H151.5ZM159 39.5H143V54.5H159V39.5ZM279.5 31V47H294.5V31H279.5ZM287 54.5H303V39.5H287V54.5ZM167.5 31V47H182.5V31H167.5ZM175 39.5H159V54.5H175V39.5ZM263.5 31V47H278.5V31H263.5ZM271 54.5H287V39.5H271V54.5ZM183.5 31V47H198.5V31H183.5ZM191 39.5H175V54.5H191V39.5ZM247.5 31V47H262.5V31H247.5ZM255 54.5H271V39.5H255V54.5ZM199.5 31V47H214.5V31H199.5ZM207 39.5H191V54.5H207V39.5ZM231.5 31V47H246.5V31H231.5ZM239 54.5H255V39.5H239V54.5ZM215.5 31V47H230.5V31H215.5ZM223 39.5H207V54.5H223V39.5ZM223 54.5H239V39.5H223V54.5ZM23.5 47V63H38.5V47H23.5ZM31 55.5H15V70.5H31V55.5ZM407.5 47V63H422.5V47H407.5ZM415 70.5H431V55.5H415V70.5ZM39.5 47V63H54.5V47H39.5ZM47 55.5H31V70.5H47V55.5ZM391.5 47V63H406.5V47H391.5ZM399 70.5H415V55.5H399V70.5ZM55.5 47V63H70.5V47H55.5ZM63 55.5H47V70.5H63V55.5ZM375.5 47V63H390.5V47H375.5ZM383 70.5H399V55.5H383V70.5ZM71.5 47V63H86.5V47H71.5ZM79 55.5H63V70.5H79V55.5ZM359.5 47V63H374.5V47H359.5ZM367 70.5H383V55.5H367V70.5ZM87.5 47V63H102.5V47H87.5ZM95 55.5H79V70.5H95V55.5ZM343.5 47V63H358.5V47H343.5ZM351 70.5H367V55.5H351V70.5ZM103.5 47V63H118.5V47H103.5ZM111 55.5H95V70.5H111V55.5ZM327.5 47V63H342.5V47H327.5ZM335 70.5H351V55.5H335V70.5ZM119.5 47V63H134.5V47H119.5ZM127 55.5H111V70.5H127V55.5ZM311.5 47V63H326.5V47H311.5ZM319 70.5H335V55.5H319V70.5ZM135.5 47V63H150.5V47H135.5ZM143 55.5H127V70.5H143V55.5ZM295.5 47V63H310.5V47H295.5ZM303 70.5H319V55.5H303V70.5ZM151.5 47V63H166.5V47H151.5ZM159 55.5H143V70.5H159V55.5ZM279.5 47V63H294.5V47H279.5ZM287 70.5H303V55.5H287V70.5ZM167.5 47V63H182.5V47H167.5ZM175 55.5H159V70.5H175V55.5ZM263.5 47V63H278.5V47H263.5ZM271 70.5H287V55.5H271V70.5ZM183.5 47V63H198.5V47H183.5ZM191 55.5H175V70.5H191V55.5ZM247.5 47V63H262.5V47H247.5ZM255 70.5H271V55.5H255V70.5ZM199.5 47V63H214.5V47H199.5ZM207 55.5H191V70.5H207V55.5ZM231.5 47V63H246.5V47H231.5ZM239 70.5H255V55.5H239V70.5ZM215.5 47V63H230.5V47H215.5ZM223 55.5H207V70.5H223V55.5ZM223 70.5H239V55.5H223V70.5ZM23.5 63V79H38.5V63H23.5ZM31 71.5H15V86.5H31V71.5ZM407.5 63V79H422.5V63H407.5ZM415 86.5H431V71.5H415V86.5ZM39.5 63V79H54.5V63H39.5ZM47 71.5H31V86.5H47V71.5ZM391.5 63V79H406.5V63H391.5ZM399 86.5H415V71.5H399V86.5ZM55.5 63V79H70.5V63H55.5ZM63 71.5H47V86.5H63V71.5ZM375.5 63V79H390.5V63H375.5ZM383 86.5H399V71.5H383V86.5ZM71.5 63V79H86.5V63H71.5ZM79 71.5H63V86.5H79V71.5ZM359.5 63V79H374.5V63H359.5ZM367 86.5H383V71.5H367V86.5ZM87.5 63V79H102.5V63H87.5ZM95 71.5H79V86.5H95V71.5ZM343.5 63V79H358.5V63H343.5ZM351 86.5H367V71.5H351V86.5ZM103.5 63V79H118.5V63H103.5ZM111 71.5H95V86.5H111V71.5ZM327.5 63V79H342.5V63H327.5ZM335 86.5H351V71.5H335V86.5ZM119.5 63V79H134.5V63H119.5ZM127 71.5H111V86.5H127V71.5ZM311.5 63V79H326.5V63H311.5ZM319 86.5H335V71.5H319V86.5ZM135.5 63V79H150.5V63H135.5ZM143 71.5H127V86.5H143V71.5ZM295.5 63V79H310.5V63H295.5ZM303 86.5H319V71.5H303V86.5ZM151.5 63V79H166.5V63H151.5ZM159 71.5H143V86.5H159V71.5ZM279.5 63V79H294.5V63H279.5ZM287 86.5H303V71.5H287V86.5ZM167.5 63V79H182.5V63H167.5ZM175 71.5H159V86.5H175V71.5ZM263.5 63V79H278.5V63H263.5ZM271 86.5H287V71.5H271V86.5ZM183.5 63V79H198.5V63H183.5ZM191 71.5H175V86.5H191V71.5ZM247.5 63V79H262.5V63H247.5ZM255 86.5H271V71.5H255V86.5ZM199.5 63V79H214.5V63H199.5ZM207 71.5H191V86.5H207V71.5ZM231.5 63V79H246.5V63H231.5ZM239 86.5H255V71.5H239V86.5ZM215.5 63V79H230.5V63H215.5ZM223 71.5H207V86.5H223V71.5ZM223 86.5H239V71.5H223V86.5ZM23.5 79V95H38.5V79H23.5ZM407.5 79V95H422.5V79H407.5ZM39.5 79V95H54.5V79H39.5ZM47 87.5H31V102.5H47V87.5ZM391.5 79V95H406.5V79H391.5ZM399 102.5H415V87.5H399V102.5ZM55.5 79V95H70.5V79H55.5ZM63 87.5H47V102.5H63V87.5ZM375.5 79V95H390.5V79H375.5ZM383 102.5H399V87.5H383V102.5ZM71.5 79V95H86.5V79H71.5ZM79 87.5H63V102.5H79V87.5ZM359.5 79V95H374.5V79H359.5ZM367 102.5H383V87.5H367V102.5ZM87.5 79V95H102.5V79H87.5ZM95 87.5H79V102.5H95V87.5ZM343.5 79V95H358.5V79H343.5ZM351 102.5H367V87.5H351V102.5ZM103.5 79V95H118.5V79H103.5ZM111 87.5H95V102.5H111V87.5ZM327.5 79V95H342.5V79H327.5ZM335 102.5H351V87.5H335V102.5ZM119.5 79V95H134.5V79H119.5ZM127 87.5H111V102.5H127V87.5ZM311.5 79V95H326.5V79H311.5ZM319 102.5H335V87.5H319V102.5ZM135.5 79V95H150.5V79H135.5ZM143 87.5H127V102.5H143V87.5ZM295.5 79V95H310.5V79H295.5ZM303 102.5H319V87.5H303V102.5ZM151.5 79V95H166.5V79H151.5ZM159 87.5H143V102.5H159V87.5ZM279.5 79V95H294.5V79H279.5ZM287 102.5H303V87.5H287V102.5ZM167.5 79V95H182.5V79H167.5ZM175 87.5H159V102.5H175V87.5ZM263.5 79V95H278.5V79H263.5ZM271 102.5H287V87.5H271V102.5ZM183.5 79V95H198.5V79H183.5ZM191 87.5H175V102.5H191V87.5ZM247.5 79V95H262.5V79H247.5ZM255 102.5H271V87.5H255V102.5ZM199.5 79V95H214.5V79H199.5ZM207 87.5H191V102.5H207V87.5ZM231.5 79V95H246.5V79H231.5ZM239 102.5H255V87.5H239V102.5ZM215.5 79V95H230.5V79H215.5ZM223 87.5H207V102.5H223V87.5ZM223 102.5H239V87.5H223V102.5ZM39.5 95V111H54.5V95H39.5ZM391.5 95V111H406.5V95H391.5ZM55.5 95V111H70.5V95H55.5ZM63 103.5H47V118.5H63V103.5ZM375.5 95V111H390.5V95H375.5ZM383 118.5H399V103.5H383V118.5ZM71.5 95V111H86.5V95H71.5ZM79 103.5H63V118.5H79V103.5ZM359.5 95V111H374.5V95H359.5ZM367 118.5H383V103.5H367V118.5ZM87.5 95V111H102.5V95H87.5ZM95 103.5H79V118.5H95V103.5ZM343.5 95V111H358.5V95H343.5ZM351 118.5H367V103.5H351V118.5ZM103.5 95V111H118.5V95H103.5ZM111 103.5H95V118.5H111V103.5ZM327.5 95V111H342.5V95H327.5ZM335 118.5H351V103.5H335V118.5ZM119.5 95V111H134.5V95H119.5ZM127 103.5H111V118.5H127V103.5ZM311.5 95V111H326.5V95H311.5ZM319 118.5H335V103.5H319V118.5ZM135.5 95V111H150.5V95H135.5ZM143 103.5H127V118.5H143V103.5ZM295.5 95V111H310.5V95H295.5ZM303 118.5H319V103.5H303V118.5ZM151.5 95V111H166.5V95H151.5ZM159 103.5H143V118.5H159V103.5ZM279.5 95V111H294.5V95H279.5ZM287 118.5H303V103.5H287V118.5ZM167.5 95V111H182.5V95H167.5ZM175 103.5H159V118.5H175V103.5ZM263.5 95V111H278.5V95H263.5ZM271 118.5H287V103.5H271V118.5ZM183.5 95V111H198.5V95H183.5ZM191 103.5H175V118.5H191V103.5ZM247.5 95V111H262.5V95H247.5ZM255 118.5H271V103.5H255V118.5ZM199.5 95V111H214.5V95H199.5ZM207 103.5H191V118.5H207V103.5ZM231.5 95V111H246.5V95H231.5ZM239 118.5H255V103.5H239V118.5ZM215.5 95V111H230.5V95H215.5ZM223 103.5H207V118.5H223V103.5ZM223 118.5H239V103.5H223V118.5ZM55.5 111V127H70.5V111H55.5ZM375.5 111V127H390.5V111H375.5ZM71.5 111V127H86.5V111H71.5ZM359.5 111V127H374.5V111H359.5ZM87.5 111V127H102.5V111H87.5ZM343.5 111V127H358.5V111H343.5ZM103.5 111V127H118.5V111H103.5ZM327.5 111V127H342.5V111H327.5ZM119.5 111V127H134.5V111H119.5ZM311.5 111V127H326.5V111H311.5ZM135.5 111V127H150.5V111H135.5ZM295.5 111V127H310.5V111H295.5ZM151.5 111V127H166.5V111H151.5ZM279.5 111V127H294.5V111H279.5ZM167.5 111V127H182.5V111H167.5ZM263.5 111V127H278.5V111H263.5ZM183.5 111V127H198.5V111H183.5ZM247.5 111V127H262.5V111H247.5ZM199.5 111V127H214.5V111H199.5ZM231.5 111V127H246.5V111H231.5ZM215.5 111V127H230.5V111H215.5ZM47 15V0H32V15H47ZM47 31V46H62V31H47ZM399 15H414V0H399V15ZM399 31H384V46H399V31ZM31 31V16H16V31H31ZM31 47V62H46V47H31ZM415 31H430V16H415V31ZM415 47H400V62H415V47ZM15 47V32H0V47H15ZM431 47H446V32H431V47ZM31 95H46V80H31V95ZM15 95H0V110H15V95ZM415 95V80H400V95H415ZM431 95V110H446V95H431ZM47 111H62V96H47V111ZM31 111H16V126H31V111ZM399 111V96H384V111H399ZM415 111V126H430V111H415ZM47 127H32V142H47V127ZM399 127V142H414V127H399ZM47 30H63V0H47V30ZM62 31V15H32V31H62ZM399 0H383V30H399V0ZM414 31V15H384V31H414ZM63 30H79V0H63V30ZM383 0H367V30H383V0ZM79 30H95V0H79V30ZM367 0H351V30H367V0ZM95 30H111V0H95V30ZM351 0H335V30H351V0ZM111 30H127V0H111V30ZM335 0H319V30H335V0ZM127 30H143V0H127V30ZM319 0H303V30H319V0ZM143 30H159V0H143V30ZM303 0H287V30H303V0ZM159 30H175V0H159V30ZM287 0H271V30H287V0ZM175 30H191V0H175V30ZM271 0H255V30H271V0ZM191 30H207V0H191V30ZM255 0H239V30H255V0ZM207 30H223V0H207V30ZM239 0H223V30H239V0ZM31 46H47V16H31V46ZM46 47V31H16V47H46ZM415 16H399V46H415V16ZM430 47V31H400V47H430ZM15 62H31V32H15V62ZM30 63V47H0V63H30ZM431 32H415V62H431V32ZM446 63V47H416V63H446ZM30 79V63H0V79H30ZM446 79V63H416V79H446ZM31 80H15V110H31V80ZM30 95V79H0V95H30ZM415 110H431V80H415V110ZM446 95V79H416V95H446ZM47 96H31V126H47V96ZM46 111V95H16V111H46ZM399 126H415V96H399V126ZM430 111V95H400V111H430ZM63 112H47V142H63V112ZM62 127V111H32V127H62ZM383 142H399V112H383V142ZM414 127V111H384V127H414ZM79 112H63V142H79V112ZM367 142H383V112H367V142ZM95 112H79V142H95V112ZM351 142H367V112H351V142ZM111 112H95V142H111V112ZM335 142H351V112H335V142ZM127 112H111V142H127V112ZM319 142H335V112H319V142ZM143 112H127V142H143V112ZM303 142H319V112H303V142ZM159 112H143V142H159V112ZM287 142H303V112H287V142ZM175 112H159V142H175V112ZM271 142H287V112H271V142ZM191 112H175V142H191V112ZM255 142H271V112H255V142ZM207 112H191V142H207V112ZM239 142H255V112H239V142ZM223 112H207V142H223V112ZM223 142H239V112H223V142Z" fill="black" fill-opacity="0.4" mask="url(#path-1-outside-1_16_7612)"/>
</g>
<g opacity="0.5">
<path d="M127 31H143V47H127V31Z" fill="#373737"/>
<path d="M143 31H159V47H143V31Z" fill="#373737"/>
<path d="M159 31H175V47H159V31Z" fill="#373737"/>
<path d="M175 31H191V47H175V31Z" fill="#373737"/>
<path d="M207 31H191V47H207V31Z" fill="#373737"/>
<path d="M111 47H127V63H111V47Z" fill="#373737"/>
<path d="M127 47H143V63H127V47Z" fill="#373737"/>
<path d="M143 47H159V63H143V47Z" fill="#373737"/>
<path d="M159 47H175V63H159V47Z" fill="#373737"/>
<path d="M175 47H191V63H175V47Z" fill="#373737"/>
<path d="M95 63H111V79H95V63Z" fill="#373737"/>
<path d="M111 63H127V79H111V63Z" fill="#373737"/>
<path d="M127 63H143V79H127V63Z" fill="#373737"/>
<path d="M143 63H159V79H143V63Z" fill="#373737"/>
<path d="M159 63H175V79H159V63Z" fill="#373737"/>
<path d="M79 79H95V95H79V79Z" fill="#373737"/>
<path d="M95 79H111V95H95V79Z" fill="#373737"/>
<path d="M111 79H127V95H111V79Z" fill="#373737"/>
<path d="M127 79H143V95H127V79Z" fill="#373737"/>
<path d="M143 79H159V95H143V79Z" fill="#373737"/>
<path d="M63 95H79V111H63V95Z" fill="#373737"/>
<path d="M79 95H95V111H79V95Z" fill="#373737"/>
<path d="M95 95H111V111H95V95Z" fill="#373737"/>
<path d="M111 95H127V111H111V95Z" fill="#373737"/>
<path d="M127 95H143V111H127V95Z" fill="#373737"/>
</g>
<g opacity="0.5">
<path d="M248 31H264V47H248V31Z" fill="#373737"/>
<path d="M264 31H280V47H264V31Z" fill="#373737"/>
<path d="M280 31H296V47H280V31Z" fill="#373737"/>
<path d="M296 31H312V47H296V31Z" fill="#373737"/>
<path d="M328 31H312V47H328V31Z" fill="#373737"/>
<path d="M232 47H248V63H232V47Z" fill="#373737"/>
<path d="M248 47H264V63H248V47Z" fill="#373737"/>
<path d="M264 47H280V63H264V47Z" fill="#373737"/>
<path d="M280 47H296V63H280V47Z" fill="#373737"/>
<path d="M296 47H312V63H296V47Z" fill="#373737"/>
<path d="M216 63H232V79H216V63Z" fill="#373737"/>
<path d="M232 63H248V79H232V63Z" fill="#373737"/>
<path d="M248 63H264V79H248V63Z" fill="#373737"/>
<path d="M264 63H280V79H264V63Z" fill="#373737"/>
<path d="M280 63H296V79H280V63Z" fill="#373737"/>
<path d="M200 79H216V95H200V79Z" fill="#373737"/>
<path d="M216 79H232V95H216V79Z" fill="#373737"/>
<path d="M232 79H248V95H232V79Z" fill="#373737"/>
<path d="M248 79H264V95H248V79Z" fill="#373737"/>
<path d="M264 79H280V95H264V79Z" fill="#373737"/>
<path d="M184 95H200V111H184V95Z" fill="#373737"/>
<path d="M200 95H216V111H200V95Z" fill="#373737"/>
<path d="M216 95H232V111H216V95Z" fill="#373737"/>
<path d="M232 95H248V111H232V95Z" fill="#373737"/>
<path d="M248 95H264V111H248V95Z" fill="#373737"/>
</g>
<defs>
<filter id="filter0_d_16_7612" x="0" y="0" width="446" height="157" filterUnits="userSpaceOnUse" color-interpolation-filters="sRGB">
<feFlood flood-opacity="0" result="BackgroundImageFix"/>
<feColorMatrix in="SourceAlpha" type="matrix" values="0 0 0 0 0 0 0 0 0 0 0 0 0 0 0 0 0 0 127 0" result="hardAlpha"/>
<feOffset dy="15"/>
<feComposite in2="hardAlpha" operator="out"/>
<feColorMatrix type="matrix" values="0 0 0 0 0 0 0 0 0 0 0 0 0 0 0 0 0 0 0.4 0"/>
<feBlend mode="normal" in2="BackgroundImageFix" result="effect1_dropShadow_16_7612"/>
<feBlend mode="normal" in="SourceGraphic" in2="effect1_dropShadow_16_7612" result="shape"/>
</filter>
</defs>
</svg>
