<svg width="1029" height="306" viewBox="0 0 1029 306" fill="none" xmlns="http://www.w3.org/2000/svg">
<g filter="url(#filter0_d_3_3827)">
<path d="M109.375 219.125V153.5H65.625V219.125H109.375ZM109.375 131.625V66H65.625V131.625H109.375ZM0 241V219.125H21.875V66H0V44.125H131.25V66H153.125V131.625H131.25V153.5H153.125V219.125H131.25V241H0ZM262.5 153.5V87.875H218.75V153.5H262.5ZM175 241V87.875H196.875V66H218.75V44.125H262.5V66H284.375V87.875H306.25V241H262.5V175.375H218.75V241H175ZM328.125 241V44.125H371.875V87.875H393.75V109.75H415.625V131.625H437.5V44.125H481.25V241H437.5V197.25H415.625V175.375H393.75V153.5H371.875V241H328.125ZM503.125 241V219.125H525V66H503.125V44.125H568.75V131.625H590.625V87.875H612.5V44.125H656.25V87.875H634.375V131.625H612.5V153.5H634.375V197.25H656.25V241H612.5V197.25H590.625V153.5H568.75V241H503.125ZM678.125 241V219.125H700V66H678.125V44.125H831.25V87.875H809.375V66H743.75V131.625H787.5V109.75H809.375V175.375H787.5V153.5H743.75V219.125H809.375V197.25H831.25V241H678.125ZM962.5 131.625V66H918.75V131.625H962.5ZM853.125 241V219.125H875V66H853.125V44.125H984.375V66H1006.25V131.625H984.375V175.375H1006.25V241H962.5V175.375H940.625V153.5H918.75V241H853.125Z" fill="url(#paint0_linear_3_3827)" shape-rendering="crispEdges"/>
<path d="M109.375 219.125V239.125H129.375V219.125H109.375ZM109.375 153.5H129.375V133.5H109.375V153.5ZM65.625 153.5V133.5H45.625V153.5H65.625ZM65.625 219.125H45.625V239.125H65.625V219.125ZM109.375 131.625V151.625H129.375V131.625H109.375ZM109.375 66H129.375V46H109.375V66ZM65.625 66V46H45.625V66H65.625ZM65.625 131.625H45.625V151.625H65.625V131.625ZM0 241H-20V261H0V241ZM0 219.125V199.125H-20V219.125H0ZM21.875 219.125V239.125H41.875V219.125H21.875ZM21.875 66H41.875V46H21.875V66ZM0 66H-20V86H0V66ZM0 44.125V24.125H-20V44.125H0ZM131.25 44.125H151.25V24.125H131.25V44.125ZM131.25 66H111.25V86H131.25V66ZM153.125 66H173.125V46H153.125V66ZM153.125 131.625V151.625H173.125V131.625H153.125ZM131.25 131.625V111.625H111.25V131.625H131.25ZM131.25 153.5H111.25V173.5H131.25V153.5ZM153.125 153.5H173.125V133.5H153.125V153.5ZM153.125 219.125V239.125H173.125V219.125H153.125ZM131.25 219.125V199.125H111.25V219.125H131.25ZM131.25 241V261H151.25V241H131.25ZM129.375 219.125V153.5H89.375V219.125H129.375ZM109.375 133.5H65.625V173.5H109.375V133.5ZM45.625 153.5V219.125H85.625V153.5H45.625ZM65.625 239.125H109.375V199.125H65.625V239.125ZM129.375 131.625V66H89.375V131.625H129.375ZM109.375 46H65.625V86H109.375V46ZM45.625 66V131.625H85.625V66H45.625ZM65.625 151.625H109.375V111.625H65.625V151.625ZM20 241V219.125H-20V241H20ZM0 239.125H21.875V199.125H0V239.125ZM41.875 219.125V66H1.875V219.125H41.875ZM21.875 46H0V86H21.875V46ZM20 66V44.125H-20V66H20ZM0 64.125H131.25V24.125H0V64.125ZM111.25 44.125V66H151.25V44.125H111.25ZM131.25 86H153.125V46H131.25V86ZM133.125 66V131.625H173.125V66H133.125ZM153.125 111.625H131.25V151.625H153.125V111.625ZM111.25 131.625V153.5H151.25V131.625H111.25ZM131.25 173.5H153.125V133.5H131.25V173.5ZM133.125 153.5V219.125H173.125V153.5H133.125ZM153.125 199.125H131.25V239.125H153.125V199.125ZM111.25 219.125V241H151.25V219.125H111.25ZM131.25 221H0V261H131.25V221ZM262.5 153.5V173.5H282.5V153.5H262.5ZM262.5 87.875H282.5V67.875H262.5V87.875ZM218.75 87.875V67.875H198.75V87.875H218.75ZM218.75 153.5H198.75V173.5H218.75V153.5ZM175 241H155V261H175V241ZM175 87.875V67.875H155V87.875H175ZM196.875 87.875V107.875H216.875V87.875H196.875ZM196.875 66V46H176.875V66H196.875ZM218.75 66V86H238.75V66H218.75ZM218.75 44.125V24.125H198.75V44.125H218.75ZM262.5 44.125H282.5V24.125H262.5V44.125ZM262.5 66H242.5V86H262.5V66ZM284.375 66H304.375V46H284.375V66ZM284.375 87.875H264.375V107.875H284.375V87.875ZM306.25 87.875H326.25V67.875H306.25V87.875ZM306.25 241V261H326.25V241H306.25ZM262.5 241H242.5V261H262.5V241ZM262.5 175.375H282.5V155.375H262.5V175.375ZM218.75 175.375V155.375H198.75V175.375H218.75ZM218.75 241V261H238.75V241H218.75ZM282.5 153.5V87.875H242.5V153.5H282.5ZM262.5 67.875H218.75V107.875H262.5V67.875ZM198.75 87.875V153.5H238.75V87.875H198.75ZM218.75 173.5H262.5V133.5H218.75V173.5ZM195 241V87.875H155V241H195ZM175 107.875H196.875V67.875H175V107.875ZM216.875 87.875V66H176.875V87.875H216.875ZM196.875 86H218.75V46H196.875V86ZM238.75 66V44.125H198.75V66H238.75ZM218.75 64.125H262.5V24.125H218.75V64.125ZM242.5 44.125V66H282.5V44.125H242.5ZM262.5 86H284.375V46H262.5V86ZM264.375 66V87.875H304.375V66H264.375ZM284.375 107.875H306.25V67.875H284.375V107.875ZM286.25 87.875V241H326.25V87.875H286.25ZM306.25 221H262.5V261H306.25V221ZM282.5 241V175.375H242.5V241H282.5ZM262.5 155.375H218.75V195.375H262.5V155.375ZM198.75 175.375V241H238.75V175.375H198.75ZM218.75 221H175V261H218.75V221ZM328.125 241H308.125V261H328.125V241ZM328.125 44.125V24.125H308.125V44.125H328.125ZM371.875 44.125H391.875V24.125H371.875V44.125ZM371.875 87.875H351.875V107.875H371.875V87.875ZM393.75 87.875H413.75V67.875H393.75V87.875ZM393.75 109.75H373.75V129.75H393.75V109.75ZM415.625 109.75H435.625V89.75H415.625V109.75ZM415.625 131.625H395.625V151.625H415.625V131.625ZM437.5 131.625V151.625H457.5V131.625H437.5ZM437.5 44.125V24.125H417.5V44.125H437.5ZM481.25 44.125H501.25V24.125H481.25V44.125ZM481.25 241V261H501.25V241H481.25ZM437.5 241H417.5V261H437.5V241ZM437.5 197.25H457.5V177.25H437.5V197.25ZM415.625 197.25H395.625V217.25H415.625V197.25ZM415.625 175.375H435.625V155.375H415.625V175.375ZM393.75 175.375H373.75V195.375H393.75V175.375ZM393.75 153.5H413.75V133.5H393.75V153.5ZM371.875 153.5V133.5H351.875V153.5H371.875ZM371.875 241V261H391.875V241H371.875ZM348.125 241V44.125H308.125V241H348.125ZM328.125 64.125H371.875V24.125H328.125V64.125ZM351.875 44.125V87.875H391.875V44.125H351.875ZM371.875 107.875H393.75V67.875H371.875V107.875ZM373.75 87.875V109.75H413.75V87.875H373.75ZM393.75 129.75H415.625V89.75H393.75V129.75ZM395.625 109.75V131.625H435.625V109.75H395.625ZM415.625 151.625H437.5V111.625H415.625V151.625ZM457.5 131.625V44.125H417.5V131.625H457.5ZM437.5 64.125H481.25V24.125H437.5V64.125ZM461.25 44.125V241H501.25V44.125H461.25ZM481.25 221H437.5V261H481.25V221ZM457.5 241V197.25H417.5V241H457.5ZM437.5 177.25H415.625V217.25H437.5V177.25ZM435.625 197.25V175.375H395.625V197.25H435.625ZM415.625 155.375H393.75V195.375H415.625V155.375ZM413.75 175.375V153.5H373.75V175.375H413.75ZM393.75 133.5H371.875V173.5H393.75V133.5ZM351.875 153.5V241H391.875V153.5H351.875ZM371.875 221H328.125V261H371.875V221ZM503.125 241H483.125V261H503.125V241ZM503.125 219.125V199.125H483.125V219.125H503.125ZM525 219.125V239.125H545V219.125H525ZM525 66H545V46H525V66ZM503.125 66H483.125V86H503.125V66ZM503.125 44.125V24.125H483.125V44.125H503.125ZM568.75 44.125H588.75V24.125H568.75V44.125ZM568.75 131.625H548.75V151.625H568.75V131.625ZM590.625 131.625V151.625H610.625V131.625H590.625ZM590.625 87.875V67.875H570.625V87.875H590.625ZM612.5 87.875V107.875H632.5V87.875H612.5ZM612.5 44.125V24.125H592.5V44.125H612.5ZM656.25 44.125H676.25V24.125H656.25V44.125ZM656.25 87.875V107.875H676.25V87.875H656.25ZM634.375 87.875V67.875H614.375V87.875H634.375ZM634.375 131.625V151.625H654.375V131.625H634.375ZM612.5 131.625V111.625H592.5V131.625H612.5ZM612.5 153.5H592.5V173.5H612.5V153.5ZM634.375 153.5H654.375V133.5H634.375V153.5ZM634.375 197.25H614.375V217.25H634.375V197.25ZM656.25 197.25H676.25V177.25H656.25V197.25ZM656.25 241V261H676.25V241H656.25ZM612.5 241H592.5V261H612.5V241ZM612.5 197.25H632.5V177.25H612.5V197.25ZM590.625 197.25H570.625V217.25H590.625V197.25ZM590.625 153.5H610.625V133.5H590.625V153.5ZM568.75 153.5V133.5H548.75V153.5H568.75ZM568.75 241V261H588.75V241H568.75ZM523.125 241V219.125H483.125V241H523.125ZM503.125 239.125H525V199.125H503.125V239.125ZM545 219.125V66H505V219.125H545ZM525 46H503.125V86H525V46ZM523.125 66V44.125H483.125V66H523.125ZM503.125 64.125H568.75V24.125H503.125V64.125ZM548.75 44.125V131.625H588.75V44.125H548.75ZM568.75 151.625H590.625V111.625H568.75V151.625ZM610.625 131.625V87.875H570.625V131.625H610.625ZM590.625 107.875H612.5V67.875H590.625V107.875ZM632.5 87.875V44.125H592.5V87.875H632.5ZM612.5 64.125H656.25V24.125H612.5V64.125ZM636.25 44.125V87.875H676.25V44.125H636.25ZM656.25 67.875H634.375V107.875H656.25V67.875ZM614.375 87.875V131.625H654.375V87.875H614.375ZM634.375 111.625H612.5V151.625H634.375V111.625ZM592.5 131.625V153.5H632.5V131.625H592.5ZM612.5 173.5H634.375V133.5H612.5V173.5ZM614.375 153.5V197.25H654.375V153.5H614.375ZM634.375 217.25H656.25V177.25H634.375V217.25ZM636.25 197.25V241H676.25V197.25H636.25ZM656.25 221H612.5V261H656.25V221ZM632.5 241V197.25H592.5V241H632.5ZM612.5 177.25H590.625V217.25H612.5V177.25ZM610.625 197.25V153.5H570.625V197.25H610.625ZM590.625 133.5H568.75V173.5H590.625V133.5ZM548.75 153.5V241H588.75V153.5H548.75ZM568.75 221H503.125V261H568.75V221ZM678.125 241H658.125V261H678.125V241ZM678.125 219.125V199.125H658.125V219.125H678.125ZM700 219.125V239.125H720V219.125H700ZM700 66H720V46H700V66ZM678.125 66H658.125V86H678.125V66ZM678.125 44.125V24.125H658.125V44.125H678.125ZM831.25 44.125H851.25V24.125H831.25V44.125ZM831.25 87.875V107.875H851.25V87.875H831.25ZM809.375 87.875H789.375V107.875H809.375V87.875ZM809.375 66H829.375V46H809.375V66ZM743.75 66V46H723.75V66H743.75ZM743.75 131.625H723.75V151.625H743.75V131.625ZM787.5 131.625V151.625H807.5V131.625H787.5ZM787.5 109.75V89.75H767.5V109.75H787.5ZM809.375 109.75H829.375V89.75H809.375V109.75ZM809.375 175.375V195.375H829.375V175.375H809.375ZM787.5 175.375H767.5V195.375H787.5V175.375ZM787.5 153.5H807.5V133.5H787.5V153.5ZM743.75 153.5V133.5H723.75V153.5H743.75ZM743.75 219.125H723.75V239.125H743.75V219.125ZM809.375 219.125V239.125H829.375V219.125H809.375ZM809.375 197.25V177.25H789.375V197.25H809.375ZM831.25 197.25H851.25V177.25H831.25V197.25ZM831.25 241V261H851.25V241H831.25ZM698.125 241V219.125H658.125V241H698.125ZM678.125 239.125H700V199.125H678.125V239.125ZM720 219.125V66H680V219.125H720ZM700 46H678.125V86H700V46ZM698.125 66V44.125H658.125V66H698.125ZM678.125 64.125H831.25V24.125H678.125V64.125ZM811.25 44.125V87.875H851.25V44.125H811.25ZM831.25 67.875H809.375V107.875H831.25V67.875ZM829.375 87.875V66H789.375V87.875H829.375ZM809.375 46H743.75V86H809.375V46ZM723.75 66V131.625H763.75V66H723.75ZM743.75 151.625H787.5V111.625H743.75V151.625ZM807.5 131.625V109.75H767.5V131.625H807.5ZM787.5 129.75H809.375V89.75H787.5V129.75ZM789.375 109.75V175.375H829.375V109.75H789.375ZM809.375 155.375H787.5V195.375H809.375V155.375ZM807.5 175.375V153.5H767.5V175.375H807.5ZM787.5 133.5H743.75V173.5H787.5V133.5ZM723.75 153.5V219.125H763.75V153.5H723.75ZM743.75 239.125H809.375V199.125H743.75V239.125ZM829.375 219.125V197.25H789.375V219.125H829.375ZM809.375 217.25H831.25V177.25H809.375V217.25ZM811.25 197.25V241H851.25V197.25H811.25ZM831.25 221H678.125V261H831.25V221ZM962.5 131.625V151.625H982.5V131.625H962.5ZM962.5 66H982.5V46H962.5V66ZM918.75 66V46H898.75V66H918.75ZM918.75 131.625H898.75V151.625H918.75V131.625ZM853.125 241H833.125V261H853.125V241ZM853.125 219.125V199.125H833.125V219.125H853.125ZM875 219.125V239.125H895V219.125H875ZM875 66H895V46H875V66ZM853.125 66H833.125V86H853.125V66ZM853.125 44.125V24.125H833.125V44.125H853.125ZM984.375 44.125H1004.38V24.125H984.375V44.125ZM984.375 66H964.375V86H984.375V66ZM1006.25 66H1026.25V46H1006.25V66ZM1006.25 131.625V151.625H1026.25V131.625H1006.25ZM984.375 131.625V111.625H964.375V131.625H984.375ZM984.375 175.375H964.375V195.375H984.375V175.375ZM1006.25 175.375H1026.25V155.375H1006.25V175.375ZM1006.25 241V261H1026.25V241H1006.25ZM962.5 241H942.5V261H962.5V241ZM962.5 175.375H982.5V155.375H962.5V175.375ZM940.625 175.375H920.625V195.375H940.625V175.375ZM940.625 153.5H960.625V133.5H940.625V153.5ZM918.75 153.5V133.5H898.75V153.5H918.75ZM918.75 241V261H938.75V241H918.75ZM982.5 131.625V66H942.5V131.625H982.5ZM962.5 46H918.75V86H962.5V46ZM898.75 66V131.625H938.75V66H898.75ZM918.75 151.625H962.5V111.625H918.75V151.625ZM873.125 241V219.125H833.125V241H873.125ZM853.125 239.125H875V199.125H853.125V239.125ZM895 219.125V66H855V219.125H895ZM875 46H853.125V86H875V46ZM873.125 66V44.125H833.125V66H873.125ZM853.125 64.125H984.375V24.125H853.125V64.125ZM964.375 44.125V66H1004.38V44.125H964.375ZM984.375 86H1006.25V46H984.375V86ZM986.25 66V131.625H1026.25V66H986.25ZM1006.25 111.625H984.375V151.625H1006.25V111.625ZM964.375 131.625V175.375H1004.38V131.625H964.375ZM984.375 195.375H1006.25V155.375H984.375V195.375ZM986.25 175.375V241H1026.25V175.375H986.25ZM1006.25 221H962.5V261H1006.25V221ZM982.5 241V175.375H942.5V241H982.5ZM962.5 155.375H940.625V195.375H962.5V155.375ZM960.625 175.375V153.5H920.625V175.375H960.625ZM940.625 133.5H918.75V173.5H940.625V133.5ZM898.75 153.5V241H938.75V153.5H898.75ZM918.75 221H853.125V261H918.75V221Z" fill="black" fill-opacity="0.5"/>
</g>
<path opacity="0.2" d="M109.375 219.125V230.125H120.375V219.125H109.375ZM109.375 153.5H120.375V142.5H109.375V153.5ZM65.625 153.5V142.5H54.625V153.5H65.625ZM65.625 219.125H54.625V230.125H65.625V219.125ZM109.375 131.625V142.625H120.375V131.625H109.375ZM109.375 66H120.375V55H109.375V66ZM65.625 66V55H54.625V66H65.625ZM65.625 131.625H54.625V142.625H65.625V131.625ZM0 241H-11V252H0V241ZM0 219.125V208.125H-11V219.125H0ZM21.875 219.125V230.125H32.875V219.125H21.875ZM21.875 66H32.875V55H21.875V66ZM0 66H-11V77H0V66ZM0 44.125V33.125H-11V44.125H0ZM131.25 44.125H142.25V33.125H131.25V44.125ZM131.25 66H120.25V77H131.25V66ZM153.125 66H164.125V55H153.125V66ZM153.125 131.625V142.625H164.125V131.625H153.125ZM131.25 131.625V120.625H120.25V131.625H131.25ZM131.25 153.5H120.25V164.5H131.25V153.5ZM153.125 153.5H164.125V142.5H153.125V153.5ZM153.125 219.125V230.125H164.125V219.125H153.125ZM131.25 219.125V208.125H120.25V219.125H131.25ZM131.25 241V252H142.25V241H131.25ZM120.375 219.125V153.5H98.375V219.125H120.375ZM109.375 142.5H65.625V164.5H109.375V142.5ZM54.625 153.5V219.125H76.625V153.5H54.625ZM65.625 230.125H109.375V208.125H65.625V230.125ZM120.375 131.625V66H98.375V131.625H120.375ZM109.375 55H65.625V77H109.375V55ZM54.625 66V131.625H76.625V66H54.625ZM65.625 142.625H109.375V120.625H65.625V142.625ZM11 241V219.125H-11V241H11ZM0 230.125H21.875V208.125H0V230.125ZM32.875 219.125V66H10.875V219.125H32.875ZM21.875 55H0V77H21.875V55ZM11 66V44.125H-11V66H11ZM0 55.125H131.25V33.125H0V55.125ZM120.25 44.125V66H142.25V44.125H120.25ZM131.25 77H153.125V55H131.25V77ZM142.125 66V131.625H164.125V66H142.125ZM153.125 120.625H131.25V142.625H153.125V120.625ZM120.25 131.625V153.5H142.25V131.625H120.25ZM131.25 164.5H153.125V142.5H131.25V164.5ZM142.125 153.5V219.125H164.125V153.5H142.125ZM153.125 208.125H131.25V230.125H153.125V208.125ZM120.25 219.125V241H142.25V219.125H120.25ZM131.25 230H0V252H131.25V230ZM262.5 153.5V164.5H273.5V153.5H262.5ZM262.5 87.875H273.5V76.875H262.5V87.875ZM218.75 87.875V76.875H207.75V87.875H218.75ZM218.75 153.5H207.75V164.5H218.75V153.5ZM175 241H164V252H175V241ZM175 87.875V76.875H164V87.875H175ZM196.875 87.875V98.875H207.875V87.875H196.875ZM196.875 66V55H185.875V66H196.875ZM218.75 66V77H229.75V66H218.75ZM218.75 44.125V33.125H207.75V44.125H218.75ZM262.5 44.125H273.5V33.125H262.5V44.125ZM262.5 66H251.5V77H262.5V66ZM284.375 66H295.375V55H284.375V66ZM284.375 87.875H273.375V98.875H284.375V87.875ZM306.25 87.875H317.25V76.875H306.25V87.875ZM306.25 241V252H317.25V241H306.25ZM262.5 241H251.5V252H262.5V241ZM262.5 175.375H273.5V164.375H262.5V175.375ZM218.75 175.375V164.375H207.75V175.375H218.75ZM218.75 241V252H229.75V241H218.75ZM273.5 153.5V87.875H251.5V153.5H273.5ZM262.5 76.875H218.75V98.875H262.5V76.875ZM207.75 87.875V153.5H229.75V87.875H207.75ZM218.75 164.5H262.5V142.5H218.75V164.5ZM186 241V87.875H164V241H186ZM175 98.875H196.875V76.875H175V98.875ZM207.875 87.875V66H185.875V87.875H207.875ZM196.875 77H218.75V55H196.875V77ZM229.75 66V44.125H207.75V66H229.75ZM218.75 55.125H262.5V33.125H218.75V55.125ZM251.5 44.125V66H273.5V44.125H251.5ZM262.5 77H284.375V55H262.5V77ZM273.375 66V87.875H295.375V66H273.375ZM284.375 98.875H306.25V76.875H284.375V98.875ZM295.25 87.875V241H317.25V87.875H295.25ZM306.25 230H262.5V252H306.25V230ZM273.5 241V175.375H251.5V241H273.5ZM262.5 164.375H218.75V186.375H262.5V164.375ZM207.75 175.375V241H229.75V175.375H207.75ZM218.75 230H175V252H218.75V230ZM328.125 241H317.125V252H328.125V241ZM328.125 44.125V33.125H317.125V44.125H328.125ZM371.875 44.125H382.875V33.125H371.875V44.125ZM371.875 87.875H360.875V98.875H371.875V87.875ZM393.75 87.875H404.75V76.875H393.75V87.875ZM393.75 109.75H382.75V120.75H393.75V109.75ZM415.625 109.75H426.625V98.75H415.625V109.75ZM415.625 131.625H404.625V142.625H415.625V131.625ZM437.5 131.625V142.625H448.5V131.625H437.5ZM437.5 44.125V33.125H426.5V44.125H437.5ZM481.25 44.125H492.25V33.125H481.25V44.125ZM481.25 241V252H492.25V241H481.25ZM437.5 241H426.5V252H437.5V241ZM437.5 197.25H448.5V186.25H437.5V197.25ZM415.625 197.25H404.625V208.25H415.625V197.25ZM415.625 175.375H426.625V164.375H415.625V175.375ZM393.75 175.375H382.75V186.375H393.75V175.375ZM393.75 153.5H404.75V142.5H393.75V153.5ZM371.875 153.5V142.5H360.875V153.5H371.875ZM371.875 241V252H382.875V241H371.875ZM339.125 241V44.125H317.125V241H339.125ZM328.125 55.125H371.875V33.125H328.125V55.125ZM360.875 44.125V87.875H382.875V44.125H360.875ZM371.875 98.875H393.75V76.875H371.875V98.875ZM382.75 87.875V109.75H404.75V87.875H382.75ZM393.75 120.75H415.625V98.75H393.75V120.75ZM404.625 109.75V131.625H426.625V109.75H404.625ZM415.625 142.625H437.5V120.625H415.625V142.625ZM448.5 131.625V44.125H426.5V131.625H448.5ZM437.5 55.125H481.25V33.125H437.5V55.125ZM470.25 44.125V241H492.25V44.125H470.25ZM481.25 230H437.5V252H481.25V230ZM448.5 241V197.25H426.5V241H448.5ZM437.5 186.25H415.625V208.25H437.5V186.25ZM426.625 197.25V175.375H404.625V197.25H426.625ZM415.625 164.375H393.75V186.375H415.625V164.375ZM404.75 175.375V153.5H382.75V175.375H404.75ZM393.75 142.5H371.875V164.5H393.75V142.5ZM360.875 153.5V241H382.875V153.5H360.875ZM371.875 230H328.125V252H371.875V230ZM503.125 241H492.125V252H503.125V241ZM503.125 219.125V208.125H492.125V219.125H503.125ZM525 219.125V230.125H536V219.125H525ZM525 66H536V55H525V66ZM503.125 66H492.125V77H503.125V66ZM503.125 44.125V33.125H492.125V44.125H503.125ZM568.75 44.125H579.75V33.125H568.75V44.125ZM568.75 131.625H557.75V142.625H568.75V131.625ZM590.625 131.625V142.625H601.625V131.625H590.625ZM590.625 87.875V76.875H579.625V87.875H590.625ZM612.5 87.875V98.875H623.5V87.875H612.5ZM612.5 44.125V33.125H601.5V44.125H612.5ZM656.25 44.125H667.25V33.125H656.25V44.125ZM656.25 87.875V98.875H667.25V87.875H656.25ZM634.375 87.875V76.875H623.375V87.875H634.375ZM634.375 131.625V142.625H645.375V131.625H634.375ZM612.5 131.625V120.625H601.5V131.625H612.5ZM612.5 153.5H601.5V164.5H612.5V153.5ZM634.375 153.5H645.375V142.5H634.375V153.5ZM634.375 197.25H623.375V208.25H634.375V197.25ZM656.25 197.25H667.25V186.25H656.25V197.25ZM656.25 241V252H667.25V241H656.25ZM612.5 241H601.5V252H612.5V241ZM612.5 197.25H623.5V186.25H612.5V197.25ZM590.625 197.25H579.625V208.25H590.625V197.25ZM590.625 153.5H601.625V142.5H590.625V153.5ZM568.75 153.5V142.5H557.75V153.5H568.75ZM568.75 241V252H579.75V241H568.75ZM514.125 241V219.125H492.125V241H514.125ZM503.125 230.125H525V208.125H503.125V230.125ZM536 219.125V66H514V219.125H536ZM525 55H503.125V77H525V55ZM514.125 66V44.125H492.125V66H514.125ZM503.125 55.125H568.75V33.125H503.125V55.125ZM557.75 44.125V131.625H579.75V44.125H557.75ZM568.75 142.625H590.625V120.625H568.75V142.625ZM601.625 131.625V87.875H579.625V131.625H601.625ZM590.625 98.875H612.5V76.875H590.625V98.875ZM623.5 87.875V44.125H601.5V87.875H623.5ZM612.5 55.125H656.25V33.125H612.5V55.125ZM645.25 44.125V87.875H667.25V44.125H645.25ZM656.25 76.875H634.375V98.875H656.25V76.875ZM623.375 87.875V131.625H645.375V87.875H623.375ZM634.375 120.625H612.5V142.625H634.375V120.625ZM601.5 131.625V153.5H623.5V131.625H601.5ZM612.5 164.5H634.375V142.5H612.5V164.5ZM623.375 153.5V197.25H645.375V153.5H623.375ZM634.375 208.25H656.25V186.25H634.375V208.25ZM645.25 197.25V241H667.25V197.25H645.25ZM656.25 230H612.5V252H656.25V230ZM623.5 241V197.25H601.5V241H623.5ZM612.5 186.25H590.625V208.25H612.5V186.25ZM601.625 197.25V153.5H579.625V197.25H601.625ZM590.625 142.5H568.75V164.5H590.625V142.5ZM557.75 153.5V241H579.75V153.5H557.75ZM568.75 230H503.125V252H568.75V230ZM678.125 241H667.125V252H678.125V241ZM678.125 219.125V208.125H667.125V219.125H678.125ZM700 219.125V230.125H711V219.125H700ZM700 66H711V55H700V66ZM678.125 66H667.125V77H678.125V66ZM678.125 44.125V33.125H667.125V44.125H678.125ZM831.25 44.125H842.25V33.125H831.25V44.125ZM831.25 87.875V98.875H842.25V87.875H831.25ZM809.375 87.875H798.375V98.875H809.375V87.875ZM809.375 66H820.375V55H809.375V66ZM743.75 66V55H732.75V66H743.75ZM743.75 131.625H732.75V142.625H743.75V131.625ZM787.5 131.625V142.625H798.5V131.625H787.5ZM787.5 109.75V98.75H776.5V109.75H787.5ZM809.375 109.75H820.375V98.75H809.375V109.75ZM809.375 175.375V186.375H820.375V175.375H809.375ZM787.5 175.375H776.5V186.375H787.5V175.375ZM787.5 153.5H798.5V142.5H787.5V153.5ZM743.75 153.5V142.5H732.75V153.5H743.75ZM743.75 219.125H732.75V230.125H743.75V219.125ZM809.375 219.125V230.125H820.375V219.125H809.375ZM809.375 197.25V186.25H798.375V197.25H809.375ZM831.25 197.25H842.25V186.25H831.25V197.25ZM831.25 241V252H842.25V241H831.25ZM689.125 241V219.125H667.125V241H689.125ZM678.125 230.125H700V208.125H678.125V230.125ZM711 219.125V66H689V219.125H711ZM700 55H678.125V77H700V55ZM689.125 66V44.125H667.125V66H689.125ZM678.125 55.125H831.25V33.125H678.125V55.125ZM820.25 44.125V87.875H842.25V44.125H820.25ZM831.25 76.875H809.375V98.875H831.25V76.875ZM820.375 87.875V66H798.375V87.875H820.375ZM809.375 55H743.75V77H809.375V55ZM732.75 66V131.625H754.75V66H732.75ZM743.75 142.625H787.5V120.625H743.75V142.625ZM798.5 131.625V109.75H776.5V131.625H798.5ZM787.5 120.75H809.375V98.75H787.5V120.75ZM798.375 109.75V175.375H820.375V109.75H798.375ZM809.375 164.375H787.5V186.375H809.375V164.375ZM798.5 175.375V153.5H776.5V175.375H798.5ZM787.5 142.5H743.75V164.5H787.5V142.5ZM732.75 153.5V219.125H754.75V153.5H732.75ZM743.75 230.125H809.375V208.125H743.75V230.125ZM820.375 219.125V197.25H798.375V219.125H820.375ZM809.375 208.25H831.25V186.25H809.375V208.25ZM820.25 197.25V241H842.25V197.25H820.25ZM831.25 230H678.125V252H831.25V230ZM962.5 131.625V142.625H973.5V131.625H962.5ZM962.5 66H973.5V55H962.5V66ZM918.75 66V55H907.75V66H918.75ZM918.75 131.625H907.75V142.625H918.75V131.625ZM853.125 241H842.125V252H853.125V241ZM853.125 219.125V208.125H842.125V219.125H853.125ZM875 219.125V230.125H886V219.125H875ZM875 66H886V55H875V66ZM853.125 66H842.125V77H853.125V66ZM853.125 44.125V33.125H842.125V44.125H853.125ZM984.375 44.125H995.375V33.125H984.375V44.125ZM984.375 66H973.375V77H984.375V66ZM1006.25 66H1017.25V55H1006.25V66ZM1006.25 131.625V142.625H1017.25V131.625H1006.25ZM984.375 131.625V120.625H973.375V131.625H984.375ZM984.375 175.375H973.375V186.375H984.375V175.375ZM1006.25 175.375H1017.25V164.375H1006.25V175.375ZM1006.25 241V252H1017.25V241H1006.25ZM962.5 241H951.5V252H962.5V241ZM962.5 175.375H973.5V164.375H962.5V175.375ZM940.625 175.375H929.625V186.375H940.625V175.375ZM940.625 153.5H951.625V142.5H940.625V153.5ZM918.75 153.5V142.5H907.75V153.5H918.75ZM918.75 241V252H929.75V241H918.75ZM973.5 131.625V66H951.5V131.625H973.5ZM962.5 55H918.75V77H962.5V55ZM907.75 66V131.625H929.75V66H907.75ZM918.75 142.625H962.5V120.625H918.75V142.625ZM864.125 241V219.125H842.125V241H864.125ZM853.125 230.125H875V208.125H853.125V230.125ZM886 219.125V66H864V219.125H886ZM875 55H853.125V77H875V55ZM864.125 66V44.125H842.125V66H864.125ZM853.125 55.125H984.375V33.125H853.125V55.125ZM973.375 44.125V66H995.375V44.125H973.375ZM984.375 77H1006.25V55H984.375V77ZM995.25 66V131.625H1017.25V66H995.25ZM1006.25 120.625H984.375V142.625H1006.25V120.625ZM973.375 131.625V175.375H995.375V131.625H973.375ZM984.375 186.375H1006.25V164.375H984.375V186.375ZM995.25 175.375V241H1017.25V175.375H995.25ZM1006.25 230H962.5V252H1006.25V230ZM973.5 241V175.375H951.5V241H973.5ZM962.5 164.375H940.625V186.375H962.5V164.375ZM951.625 175.375V153.5H929.625V175.375H951.625ZM940.625 142.5H918.75V164.5H940.625V142.5ZM907.75 153.5V241H929.75V153.5H907.75ZM918.75 230H853.125V252H918.75V230Z" fill="white"/>
<defs>
<filter id="filter0_d_3_3827" x="0" y="44.125" width="1006.25" height="216.875" filterUnits="userSpaceOnUse" color-interpolation-filters="sRGB">
<feFlood flood-opacity="0" result="BackgroundImageFix"/>
<feColorMatrix in="SourceAlpha" type="matrix" values="0 0 0 0 0 0 0 0 0 0 0 0 0 0 0 0 0 0 127 0" result="hardAlpha"/>
<feOffset dy="20"/>
<feComposite in2="hardAlpha" operator="out"/>
<feColorMatrix type="matrix" values="0 0 0 0 0 0 0 0 0 0 0 0 0 0 0 0 0 0 0.5 0"/>
<feBlend mode="normal" in2="BackgroundImageFix" result="effect1_dropShadow_3_3827"/>
<feBlend mode="normal" in="SourceGraphic" in2="effect1_dropShadow_3_3827" result="shape"/>
</filter>
<linearGradient id="paint0_linear_3_3827" x1="514.5" y1="0" x2="514.5" y2="306" gradientUnits="userSpaceOnUse">
<stop offset="0.114583" stop-color="#F7F7F7"/>
<stop offset="0.114683" stop-color="#EBEBEB"/>
<stop offset="0.385417" stop-color="#D2D2D2"/>
<stop offset="0.385517" stop-color="#969696"/>
<stop offset="0.604167" stop-color="#ABABAB"/>
<stop offset="0.604267" stop-color="#505050"/>
<stop offset="0.8124" stop-color="#8B8B8B"/>
<stop offset="0.8125" stop-color="#717171"/>
</linearGradient>
</defs>
</svg>
