<svg width="26" height="43" viewBox="0 0 26 43" fill="none" xmlns="http://www.w3.org/2000/svg">
<g filter="url(#filter0_d_40_7618)">
<path d="M6.57143 0H9.85714V3.07692H6.57143V0Z" fill="white"/>
<path d="M9.85714 0H13.1429V3.07692H9.85714V0Z" fill="white"/>
<path d="M13.1429 0H16.4286V3.07692H13.1429V0Z" fill="white"/>
<path d="M3.28571 3.07692H6.57143V6.15385H3.28571V3.07692Z" fill="white"/>
<path d="M6.57143 3.07692H9.85714V6.15385H6.57143V3.07692Z" fill="white"/>
<path d="M9.85714 3.07692H13.1429V6.15385H9.85714V3.07692Z" fill="white"/>
<path d="M13.1429 3.07692H16.4286V6.15385H13.1429V3.07692Z" fill="white"/>
<path d="M16.4286 3.07692H19.7143V6.15385H16.4286V3.07692Z" fill="white"/>
<path d="M3.28571 6.15385H6.57143V9.23077H3.28571V6.15385Z" fill="white"/>
<path d="M6.57143 6.15385H9.85714V9.23077H6.57143V6.15385Z" fill="white"/>
<path d="M9.85714 6.15385H13.1429V9.23077H9.85714V6.15385Z" fill="white"/>
<path d="M13.1429 6.15385H16.4286V9.23077H13.1429V6.15385Z" fill="white"/>
<path d="M16.4286 6.15385H19.7143V9.23077H16.4286V6.15385Z" fill="white"/>
<path d="M3.28571 9.23077H6.57143V12.3077H3.28571V9.23077Z" fill="white"/>
<path d="M6.57143 9.23077H9.85714V12.3077H6.57143V9.23077Z" fill="white"/>
<path d="M9.85714 9.23077H13.1429V12.3077H9.85714V9.23077Z" fill="white"/>
<path d="M13.1429 9.23077H16.4286V12.3077H13.1429V9.23077Z" fill="white"/>
<path d="M16.4286 9.23077H19.7143V12.3077H16.4286V9.23077Z" fill="white"/>
<path d="M6.57143 12.3077H9.85714V15.3846H6.57143V12.3077Z" fill="white"/>
<path d="M9.85714 12.3077H13.1429V15.3846H9.85714V12.3077Z" fill="white"/>
<path d="M13.1429 12.3077H16.4286V15.3846H13.1429V12.3077Z" fill="white"/>
<path d="M3.28571 18.4615H6.57143V21.5385H3.28571V18.4615Z" fill="white"/>
<path d="M6.57143 18.4615H9.85714V21.5385H6.57143V18.4615Z" fill="white"/>
<path d="M9.85714 18.4615H13.1429V21.5385H9.85714V18.4615Z" fill="white"/>
<path d="M13.1429 18.4615H16.4286V21.5385H13.1429V18.4615Z" fill="white"/>
<path d="M16.4286 18.4615H19.7143V21.5385H16.4286V18.4615Z" fill="white"/>
<path d="M0 21.5385H3.28571V24.6154H0V21.5385Z" fill="white"/>
<path d="M3.28571 21.5385H6.57143V24.6154H3.28571V21.5385Z" fill="white"/>
<path d="M6.57143 21.5385H9.85714V24.6154H6.57143V21.5385Z" fill="white"/>
<path d="M9.85714 21.5385H13.1429V24.6154H9.85714V21.5385Z" fill="white"/>
<path d="M13.1429 21.5385H16.4286V24.6154H13.1429V21.5385Z" fill="white"/>
<path d="M16.4286 21.5385H19.7143V24.6154H16.4286V21.5385Z" fill="white"/>
<path d="M19.7143 21.5385H23V24.6154H19.7143V21.5385Z" fill="white"/>
<path d="M0 24.6154H3.28571V27.6923H0V24.6154Z" fill="white"/>
<path d="M3.28571 24.6154H6.57143V27.6923H3.28571V24.6154Z" fill="white"/>
<path d="M6.57143 24.6154H9.85714V27.6923H6.57143V24.6154Z" fill="white"/>
<path d="M9.85714 24.6154H13.1429V27.6923H9.85714V24.6154Z" fill="white"/>
<path d="M13.1429 24.6154H16.4286V27.6923H13.1429V24.6154Z" fill="white"/>
<path d="M16.4286 24.6154H19.7143V27.6923H16.4286V24.6154Z" fill="white"/>
<path d="M19.7143 24.6154H23V27.6923H19.7143V24.6154Z" fill="white"/>
<path d="M0 27.6923H3.28571V30.7692H0V27.6923Z" fill="white"/>
<path d="M3.28571 27.6923H6.57143V30.7692H3.28571V27.6923Z" fill="white"/>
<path d="M6.57143 27.6923H9.85714V30.7692H6.57143V27.6923Z" fill="white"/>
<path d="M9.85714 27.6923H13.1429V30.7692H9.85714V27.6923Z" fill="white"/>
<path d="M13.1429 27.6923H16.4286V30.7692H13.1429V27.6923Z" fill="white"/>
<path d="M16.4286 27.6923H19.7143V30.7692H16.4286V27.6923Z" fill="white"/>
<path d="M19.7143 27.6923H23V30.7692H19.7143V27.6923Z" fill="white"/>
<path d="M0 30.7692H3.28571V33.8462H0V30.7692Z" fill="white"/>
<path d="M3.28571 30.7692H6.57143V33.8462H3.28571V30.7692Z" fill="white"/>
<path d="M6.57143 30.7692H9.85714V33.8462H6.57143V30.7692Z" fill="white"/>
<path d="M9.85714 30.7692H13.1429V33.8462H9.85714V30.7692Z" fill="white"/>
<path d="M13.1429 30.7692H16.4286V33.8462H13.1429V30.7692Z" fill="white"/>
<path d="M16.4286 30.7692H19.7143V33.8462H16.4286V30.7692Z" fill="white"/>
<path d="M19.7143 30.7692H23V33.8462H19.7143V30.7692Z" fill="white"/>
<path d="M0 33.8462H3.28571V36.9231H0V33.8462Z" fill="white"/>
<path d="M3.28571 33.8462H6.57143V36.9231H3.28571V33.8462Z" fill="white"/>
<path d="M6.57143 33.8462H9.85714V36.9231H6.57143V33.8462Z" fill="white"/>
<path d="M9.85714 33.8462H13.1429V36.9231H9.85714V33.8462Z" fill="white"/>
<path d="M13.1429 33.8462H16.4286V36.9231H13.1429V33.8462Z" fill="white"/>
<path d="M16.4286 33.8462H19.7143V36.9231H16.4286V33.8462Z" fill="white"/>
<path d="M19.7143 33.8462H23V36.9231H19.7143V33.8462Z" fill="white"/>
<path d="M3.28571 36.9231H6.57143V40H3.28571V36.9231Z" fill="white"/>
<path d="M6.57143 36.9231H9.85714V40H6.57143V36.9231Z" fill="white"/>
<path d="M9.85714 36.9231H13.1429V40H9.85714V36.9231Z" fill="white"/>
<path d="M13.1429 36.9231H16.4286V40H13.1429V36.9231Z" fill="white"/>
<path d="M16.4286 36.9231H19.7143V40H16.4286V36.9231Z" fill="white"/>
</g>
<defs>
<filter id="filter0_d_40_7618" x="0" y="0" width="26" height="43" filterUnits="userSpaceOnUse" color-interpolation-filters="sRGB">
<feFlood flood-opacity="0" result="BackgroundImageFix"/>
<feColorMatrix in="SourceAlpha" type="matrix" values="0 0 0 0 0 0 0 0 0 0 0 0 0 0 0 0 0 0 127 0" result="hardAlpha"/>
<feOffset dx="3" dy="3"/>
<feComposite in2="hardAlpha" operator="out"/>
<feColorMatrix type="matrix" values="0 0 0 0 0 0 0 0 0 0 0 0 0 0 0 0 0 0 0.4 0"/>
<feBlend mode="normal" in2="BackgroundImageFix" result="effect1_dropShadow_40_7618"/>
<feBlend mode="normal" in="SourceGraphic" in2="effect1_dropShadow_40_7618" result="shape"/>
</filter>
</defs>
</svg>
